<svg t="1586157051089" class="icon" viewBox="0 0 1024 1024" version="1.1" xmlns="http://www.w3.org/2000/svg" p-id="14337" width="200" height="200"><path d="M360.92136021 885.80770098c0 21.33145471-17.71985087 38.64550797-40.02522167 38.64550797s-40.01169505-17.31405326-40.01169375-38.64550797c0-21.30440145 17.71985087-38.61845471 40.01169375-38.6184547 22.31889614 0 40.03874831 17.31405326 40.03874831 38.6184547m-120.63025431 0c0 43.96146336 36.08898 79.22531891 80.591506 79.22531891 44.51605391 0 80.61855925-35.26385684 80.61856054-79.22531891 0-43.9344101-36.10250663-79.19826694-80.61856054-79.19826564-44.50252729 0-80.59150598 35.26385684-80.591506 79.19826564M783.31662309 885.80770098c0 21.33145471-17.71985087 38.64550797-40.03874831 38.64550797-22.29184288 0-39.99816842-17.31405326-39.99816842-38.64550797 0-21.30440145 17.70632425-38.61845471 40.01169505-38.6184547 22.21068309 0 40.02522167 17.36815978 40.02522168 38.6184547m-120.61672766 0c0 43.96146336 36.08898 79.22531891 80.59150598 79.22531891s80.60503262-35.26385684 80.60503263-79.22531891c0-43.88030358-36.21071838-79.19826694-80.61855926-79.19826564-44.50252729 0-80.57797936 35.26385684-80.57797935 79.19826564M117.56422779 140.01839023c33.81650997 0 63.84557121 26.06576629 67.90355257 58.70546203l29.19041144 164.80814244L265.97812655 716.25172033c2.73237417 23.02227964 23.91503595 42.55469638 47.14021504 42.55469638h490.00122957a20.28990547 20.28990547 0 1 0 0-40.57981223H313.11834159c-2.32657525 0-6.50629628-3.85508189-6.91209519-7.29083954L254.72399207 357.06627833l-29.12277829-164.38881821c-6.46571638-52.07742477-53.87646402-93.23888081-108.02345936-93.23888211H79.14867253a20.28990547 20.28990547 0 0 0 0 40.57981222h38.41555526z" fill="#e16531" p-id="14338"></path><path d="M805.12150858 611.60991209c23.50923833-0.1758462 45.11122435-18.74787348 48.03297005-42.43295672l47.47838079-324.74670832c1.85314448-16.23192541-2.66474101-32.86964715-12.68795472-43.96146337a39.145992 39.145992 0 0 0-29.46094405-13.16138548H335.88361654a20.28990547 20.28990547 0 1 0 0 40.57981224h522.60034411c1.08212785 1.70435155 2.4347883 6.70919573 1.89372437 11.30824101l-47.4377996 324.55733548c-0.4463775 3.61160384-4.72078494 7.29083955-9.45509652 7.33141945L392.96588549 600.59925566a20.28990547 20.28990547 0 0 0 2.9217457 40.48512581l409.23387739-29.48799602z" fill="#e16531" p-id="14339"></path></svg>