<?xml version="1.0" standalone="no"?><!DOCTYPE svg PUBLIC "-//W3C//DTD SVG 1.1//EN" "http://www.w3.org/Graphics/SVG/1.1/DTD/svg11.dtd"><svg class="icon" width="300px" height="300.00px" viewBox="0 0 1024 1024" version="1.1" xmlns="http://www.w3.org/2000/svg"><path d="M327.68 823.808c-41.472-32.512-77.056-70.4-102.4-117.248-3.328-6.4-7.936-8.704-14.592-10.496a1500.654 1500.654 0 0 1-68.352-19.968c-24.064-7.936-35.584-33.536-26.624-56.832 7.68-20.224 29.696-31.488 50.944-26.112 6.912 1.792 13.824 3.584 22.272 5.888-3.84-11.264-2.048-21.76-4.352-32.256-3.584-16.384-3.84-17.408-22.272-18.688-12.544-0.768-25.344-1.28-35.072-11.776-9.216-9.728-12.288-20.224-7.68-32.512 4.864-13.312 14.592-20.224 28.672-22.016 9.472-1.28 18.688 1.536 27.648 3.072 11.52 2.048 14.336-3.072 15.872-12.288 4.864-30.464 15.104-59.392 29.184-86.784 15.104-29.696 34.048-56.576 56.832-81.152 51.712-55.808 114.944-90.88 188.928-105.984 69.632-14.08 137.472-5.632 203.264 21.248 41.216 16.896 76.032 42.752 109.056 71.936 0.512 0.512 1.536 1.024 1.792 1.792 18.176 34.56 49.408 27.392 79.36 25.344 14.848-1.024 29.696-4.352 43.776 2.816 13.312 6.912 20.224 21.504 17.152 35.072-3.584 14.848-15.872 24.832-31.232 24.832-12.032 0-23.552 4.096-35.584 2.816-5.376-0.512-6.656 1.792-4.608 6.912 5.376 13.312 10.752 26.88 15.616 40.448 2.304 6.4 6.144 4.608 9.984 3.328 10.24-3.328 20.224-6.912 30.208-9.984 23.552-7.424 46.848 4.352 54.784 27.904 7.424 22.528-4.608 46.08-27.648 54.272-12.8 4.352-25.6 9.216-38.912 12.8-8.704 2.304-11.008 6.656-10.752 15.36 1.536 58.112-11.52 113.152-37.632 164.608-14.592 28.928-33.28 55.04-55.552 78.848-15.616 16.384-32.512 30.976-49.92 45.056-97.536 0.256-194.816 0.256-292.352 0.512l-119.808-0.768z m292.352-128.512v1.024h57.6c4.608 0 10.496 0.512 10.752-5.888 0.256-7.424-6.144-6.656-11.264-6.912h-8.96c-61.952 0-123.648-0.256-185.6 0.256-14.336 0-9.216-10.24-11.008-16.64-2.56-8.96 4.864-6.912 9.472-7.168 61.184-3.584 122.624-7.168 183.808-9.984 11.776-0.512 16.896-4.608 18.944-16.64 8.192-49.664 17.152-99.072 26.112-148.48 3.072-16.896 2.816-17.152-14.592-17.408-80.128-0.512-160.256-1.024-240.384-1.28-8.192 0-12.288-1.536-12.544-10.752-0.256-8.448-2.048-16.896-2.304-25.344-0.256-6.912-3.072-11.264-11.776-10.496-14.848 1.024-29.952 0.256-44.8 0.256-5.12 0-11.52-0.768-11.264 6.656 0.256 7.168 6.912 6.144 11.776 6.144 11.52 0 23.04 0.256 34.56 0 6.656-0.256 8.704 2.304 9.472 8.704 10.752 79.872 22.272 159.488 32.768 239.104 1.536 11.52 5.12 15.104 16.64 15.104 47.104-0.512 94.72-0.256 142.592-0.256zM536.064 337.92c17.408 0 32-14.08 32.256-31.488 0.256-17.408-13.824-32-31.232-32.512-17.92-0.512-32.768 14.336-32.768 32.256 0 17.152 14.592 31.744 31.744 31.744zM524.8 732.672c-0.256-13.312-11.776-23.808-25.088-23.552-13.312 0.512-24.064 11.776-23.552 24.832 0.512 13.312 11.776 24.064 25.088 23.552 13.312-0.256 23.808-11.52 23.552-24.832z m148.48 1.024c0.256-13.312-10.752-24.32-24.064-24.576-13.312 0-24.32 10.752-24.576 24.064 0 13.312 10.752 24.576 24.064 24.576s24.32-10.752 24.576-24.064zM296.192 404.48c10.24-0.256 18.688-8.96 18.688-18.944 0-10.752-8.96-19.456-19.712-19.2-10.24 0.256-18.688 8.96-18.688 18.944 0 10.496 8.96 19.456 19.712 19.2zM273.92 522.752c-0.768-7.936-4.864-12.8-12.8-13.056-7.424 0-12.032 4.352-12.544 11.52-0.512 7.936 4.096 13.056 11.776 13.568 8.192 0.512 12.288-4.352 13.568-12.032z m521.984-56.832c6.4-0.768 10.496-4.096 10.24-10.752-0.256-5.888-4.096-9.472-9.984-9.472s-9.728 3.584-10.24 9.216c-0.256 6.656 3.84 9.984 9.984 11.008z" fill="#FCEFED" /><path d="M327.68 823.808c39.936 0.256 79.872 0.512 120.064 0.512 97.536 0 194.816-0.256 292.352-0.512 19.968 0.256 39.936 0.256 60.16 0.512 5.376 0 13.824-2.304 13.568 6.656-0.256 7.936-7.936 5.888-13.312 5.888H232.96c-4.608 0-9.216-0.512-9.472-5.888-0.256-6.4 4.864-6.912 9.984-6.912h83.2c3.328 0.256 7.168 0 11.008-0.256z m316.928 82.432H431.104c-3.328 0-6.912 0-10.24-0.256-3.328-0.256-5.632-2.56-5.888-5.632-0.256-4.096 2.304-6.144 6.144-6.656 3.072-0.256 5.888-0.256 8.96-0.256h429.568c3.072 0 5.888 0 8.96 0.256 3.84 0.256 6.656 2.56 6.4 6.4-0.256 3.84-2.816 5.888-6.912 6.144H644.608z m-230.4-48.64h98.304c5.12 0 11.52-1.024 11.776 6.144 0.256 7.168-6.144 6.656-11.264 6.656H313.6c-5.12 0-11.52 0.512-11.264-6.912 0.512-7.168 6.912-5.888 12.032-5.888h99.84z" fill="#F92709" /><path d="M1011.2 352.256c0 14.336-12.288 26.624-26.624 26.624-14.848 0-27.392-12.544-26.88-27.648 0.256-14.336 13.056-26.368 27.392-26.112 14.08 0.256 26.112 12.544 26.112 27.136zM66.56 517.376c-0.256 12.8-11.264 22.784-25.6 22.784-12.544 0-23.296-11.264-23.04-23.808 0.512-14.336 10.496-25.088 23.552-24.832 15.104 0.256 25.344 10.752 25.088 25.856z" fill="#FCEFED" /><path d="M263.68 906.24h-55.04c-5.12 0-11.52 0.512-11.264-6.656 0.256-6.4 5.888-6.144 10.752-6.144h113.664c4.864 0 10.496-0.256 10.496 6.144 0 7.424-6.144 6.656-11.264 6.656H263.68z m425.728-48.64h52.224c4.864 0 10.496 0 10.496 6.4s-5.376 6.656-10.24 6.656H634.624c-5.12 0-9.984-0.512-9.728-6.912 0.256-5.632 5.12-5.888 9.472-5.888 18.432-0.256 36.864-0.256 55.04-0.256z" fill="#F92709" /><path d="M619.008 158.72c-13.312 0.256-24.576-10.24-25.088-23.552-0.512-13.312 9.984-24.576 23.552-25.088 13.312-0.512 24.576 10.24 25.088 23.552 0.256 13.312-10.24 24.576-23.552 25.088z m-0.256-9.984c7.424-1.28 13.056-5.12 13.568-13.568 0.256-8.96-4.864-14.336-13.824-14.592-8.192-0.256-13.568 4.864-14.08 13.056-0.512 9.216 5.12 13.568 14.336 15.104z" fill="#F92B0D" /><path d="M866.048 837.12h-16.384c-3.84 0-6.656-2.048-6.912-5.888-0.256-4.096 2.304-6.4 6.144-6.4a824.459 824.459 0 0 1 35.584 0c3.84 0 6.4 2.56 6.144 6.4-0.256 3.84-2.816 5.888-6.912 6.144-5.888-0.256-11.776-0.256-17.664-0.256z m-286.72 20.48h15.36c3.84 0 6.656 2.048 6.912 6.144 0.256 3.84-2.304 6.4-6.144 6.4a710.112 710.112 0 0 1-33.024 0c-3.84 0-6.4-2.56-6.144-6.656 0.256-3.84 3.072-5.888 6.912-5.888h16.128z" fill="#F9290B" /><path d="M620.032 695.296c-47.616 0-95.488-0.256-143.104 0.256-11.264 0-15.104-3.584-16.64-15.104-10.496-79.872-21.76-159.488-32.768-239.104-0.768-6.4-2.816-8.96-9.472-8.704-11.52 0.512-23.04 0.256-34.56 0-5.12 0-11.52 0.768-11.776-6.144-0.256-7.424 6.4-6.656 11.264-6.656 14.848 0 29.952 0.512 44.8-0.256 8.704-0.512 11.776 3.584 11.776 10.496 0.256 8.448 2.048 16.896 2.304 25.344 0.256 9.216 4.352 10.752 12.544 10.752 80.128 0.256 160.256 0.768 240.384 1.28 17.408 0 17.664 0.512 14.592 17.408-8.704 49.408-17.92 98.816-26.112 148.48-2.048 12.288-7.168 16.128-18.944 16.64-61.44 3.072-122.624 6.656-183.808 9.984-4.352 0.256-12.032-1.792-9.472 7.168 1.792 6.4-3.072 16.896 11.008 16.64 61.952-0.512 123.648-0.256 185.6-0.256h8.96c5.12 0 11.264-0.768 11.264 6.912-0.256 6.4-5.888 5.888-10.752 5.888h-57.6c0.512-0.256 0.512-0.768 0.512-1.024zM570.624 480v-1.28c-37.12 0-74.24 0.512-111.36-0.256-11.776-0.256-12.8 3.584-11.264 13.312 7.68 48.384 15.104 96.768 22.016 145.408 1.28 8.96 4.352 10.752 12.8 10.24 58.624-3.584 117.504-6.912 176.384-9.728 8.704-0.512 11.264-3.328 12.8-11.52 7.68-44.8 15.872-89.856 24.32-134.656 1.792-9.728-1.792-11.52-10.24-11.52H570.624z" fill="#F92709" /><path d="M536.064 337.92c-17.408 0-31.744-14.592-31.744-31.744 0-17.92 14.848-32.512 32.768-32.256 17.408 0.512 31.488 15.104 31.232 32.512-0.256 17.408-14.848 31.488-32.256 31.488z m0-51.2c-10.496 0-19.2 9.216-18.944 19.712 0.256 9.984 8.704 18.432 18.688 18.688 10.496 0.256 19.456-8.448 19.456-18.944 0.256-10.752-8.704-19.456-19.2-19.456z" fill="#F9280A" /><path d="M524.8 732.672c0.256 13.312-10.24 24.576-23.552 25.088-13.312 0.512-24.576-10.24-25.088-23.552-0.512-13.312 10.24-24.576 23.552-24.832 13.312-0.512 24.832 9.984 25.088 23.296z m-12.544 1.024c-0.768-6.912-4.352-11.264-11.264-11.52-6.912-0.256-11.52 3.84-11.776 10.752-0.256 7.68 4.096 12.032 11.52 12.032 6.912 0 10.496-4.608 11.52-11.264z m161.024 0c-0.256 13.312-11.264 24.064-24.576 24.064-13.056 0-24.064-11.264-24.064-24.576 0-13.312 11.264-24.064 24.576-24.064 13.312 0.256 24.32 11.264 24.064 24.576z m-12.544 0.256c-0.512-6.912-4.096-11.52-11.008-11.776-7.68-0.256-12.032 4.096-12.032 11.776 0 6.912 4.608 11.008 11.52 11.008s10.496-4.352 11.52-11.008z" fill="#F9290B" /><path d="M296.192 404.48c-10.752 0.256-19.712-8.704-19.712-19.2 0-10.24 8.448-18.688 18.688-18.944 10.752-0.256 19.712 8.704 19.712 19.2 0 9.984-8.448 18.688-18.688 18.944z" fill="#F9280B" /><path d="M273.92 522.752c-1.28 7.68-5.632 12.544-13.568 12.032-7.936-0.512-12.544-5.632-11.776-13.568 0.512-7.168 5.376-11.776 12.544-11.52 7.936 0 12.032 5.12 12.8 13.056z" fill="#F92B0E" /><path d="M795.904 465.92c-6.4-1.024-10.24-4.352-9.984-11.008 0.512-5.888 4.352-9.472 10.24-9.216 5.888 0 9.728 3.584 9.984 9.472 0.256 6.656-3.84 9.984-10.24 10.752z" fill="#F92E11" /><path d="M618.752 148.736c-9.216-1.536-14.848-5.888-14.336-15.104 0.512-8.192 5.632-13.312 14.08-13.056 8.96 0.256 14.08 5.632 13.824 14.592-0.512 8.448-6.144 12.288-13.568 13.568z" fill="#FCECEA" /><path d="M570.624 480c38.4 0 76.8 0.256 115.2 0 8.448 0 12.032 1.792 10.24 11.52-8.448 44.8-16.64 89.6-24.32 134.656-1.28 8.192-4.096 11.008-12.8 11.52-58.88 2.816-117.504 6.144-176.384 9.728-8.448 0.512-11.52-1.28-12.8-10.24-6.912-48.384-14.336-97.024-22.016-145.408-1.536-9.728-0.512-13.824 11.264-13.312 37.12 1.024 74.24 0.256 111.36 0.256 0.256 0.512 0.256 0.768 0.256 1.28z m-27.136 121.344c3.328-0.256 5.12-2.56 7.424-4.608 6.4-6.4 13.056-12.288 18.944-18.944 4.352-4.864 7.68-5.376 12.288 0 6.144 6.912 13.056 13.312 19.712 19.968 3.072 3.072 6.656 6.4 10.752 1.792 3.584-3.84 0.768-7.168-2.048-9.984-5.888-6.144-11.52-12.8-18.176-17.92-7.936-6.4-6.656-11.008 0.512-16.896 6.4-5.376 12.288-11.776 18.176-17.92 2.816-2.816 5.12-6.144 1.28-9.984-3.84-3.584-6.912-1.28-9.984 1.536-6.912 6.912-14.08 13.568-20.736 20.736-4.096 4.352-7.168 4.864-11.264 0-6.4-6.912-13.056-13.312-19.712-19.968-3.072-3.072-6.4-6.912-10.752-2.56-4.608 4.096-1.024 7.68 2.048 10.752 6.144 6.4 12.288 13.056 19.2 18.944 6.4 5.376 5.376 8.96-0.256 14.08-6.912 6.144-13.312 13.056-19.968 19.712-2.304 2.304-3.84 4.608-2.048 7.936 0.512 2.048 2.304 3.328 4.608 3.328z" fill="#FCEFED" /><path d="M536.064 286.72c10.496 0 19.456 8.704 19.456 19.2s-8.96 19.2-19.456 18.944c-9.984-0.256-18.432-8.448-18.688-18.688-0.512-10.24 8.192-19.2 18.688-19.456z" fill="#FCEEEC" /><path d="M512.256 733.696c-0.768 6.912-4.352 11.264-11.52 11.264-7.68 0-12.032-4.608-11.52-12.032 0.256-6.912 4.864-11.008 11.776-10.752 6.912 0 10.496 4.608 11.264 11.52z m148.48 0.256c-0.768 6.912-4.608 11.008-11.52 11.008s-11.264-4.096-11.52-11.008c0-7.68 4.352-12.032 12.032-11.776 6.912 0.256 10.496 4.608 11.008 11.776z" fill="#FCE9E6" /><path d="M543.488 601.344c-2.304 0-4.096-1.28-5.12-3.328-1.792-3.328 0-5.632 2.048-7.936 6.656-6.656 12.8-13.568 19.968-19.712 5.632-5.12 6.656-8.704 0.256-14.08-6.912-5.632-12.8-12.544-19.2-18.944-3.072-3.072-6.4-6.656-2.048-10.752 4.608-4.096 7.68-0.256 10.752 2.56 6.656 6.656 13.568 13.056 19.712 19.968 4.096 4.608 7.168 4.352 11.264 0 6.656-7.168 13.824-14.08 20.736-20.736 2.816-2.816 6.144-5.376 9.984-1.536 3.84 3.584 1.536 6.912-1.28 9.984-5.888 6.144-11.52 12.544-18.176 17.92-7.168 5.888-8.448 10.496-0.512 16.896 6.656 5.376 12.288 11.776 18.176 17.92 2.816 2.816 5.632 5.888 2.048 9.984-4.096 4.608-7.68 1.28-10.752-1.792-6.656-6.656-13.568-13.056-19.712-19.968-4.608-5.12-7.68-4.864-12.288 0-5.888 6.656-12.544 12.8-18.944 18.944-1.536 2.048-3.584 4.608-6.912 4.608z" fill="#F9290C" /><path d="M353.28 179.2c-3.584 0-6.4-2.816-6.4-6.4v-48.64c0-3.584 2.816-6.4 6.4-6.4s6.4 2.816 6.4 6.4v48.64c0 3.584-2.816 6.4-6.4 6.4z" fill="#FA2709" /><path d="M373.76 154.88H332.8c-3.584 0-6.4-2.816-6.4-6.4s2.816-6.4 6.4-6.4h40.96c3.584 0 6.4 2.816 6.4 6.4s-2.816 6.4-6.4 6.4z m385.536 192H746.24c-0.512 0-1.024-0.512-1.024-1.024v-0.256c0-0.512 0.512-1.024 1.024-1.024h13.056c0.512 0 1.024 0.512 1.024 1.024v0.256c0 0.512-0.512 1.024-1.024 1.024z" fill="#FA2709" /><path d="M753.408 354.56h-0.256c-0.512 0-1.024-0.512-1.024-1.024V337.92c0-0.512 0.512-1.024 1.024-1.024h0.256c0.512 0 1.024 0.512 1.024 1.024v15.616c0.256 0.512-0.256 1.024-1.024 1.024z m6.912-140.8c-2.816 0-4.864-2.304-4.864-4.864v-33.792c0-2.816 2.304-4.864 4.864-4.864 2.816 0 4.864 2.304 4.864 4.864v33.536c0 2.816-2.048 5.12-4.864 5.12z" fill="#FA2709" /><path d="M777.216 196.864H743.68c-2.816 0-4.864-2.304-4.864-4.864 0-2.816 2.304-4.864 4.864-4.864h33.536c2.816 0 4.864 2.304 4.864 4.864 0 2.816-2.304 4.864-4.864 4.864z" fill="#FA2709" /></svg>