<?xml version="1.0" standalone="no"?><!DOCTYPE svg PUBLIC "-//W3C//DTD SVG 1.1//EN" "http://www.w3.org/Graphics/SVG/1.1/DTD/svg11.dtd"><svg class="icon" width="200px" height="200.00px" viewBox="0 0 1024 1024" version="1.1" xmlns="http://www.w3.org/2000/svg"><path d="M498.2 577.5l-17.9-39-19.7 38.7c-2.7 5.3-7.7 8.9-13.6 9.7l-43.3 5.7 30.8 30.8c4.1 4.1 6 10 5 15.7l-7.9 42.9 38.7-19.7c3.1-1.6 6.6-2.2 10-1.8l-2.9-0.4c3 0 5.9 0.7 8.6 2.1l38.3 20.8-6.8-42.9c-0.9-5.8 1.1-11.7 5.4-15.7l31.5-30.1-42.9-6.8c-5.8-0.9-10.8-4.7-13.3-10z" fill="#FFEDA4" /><path d="M715.1 396.4V292.3c0-4.7-1.9-9.3-5.2-12.7-3.4-3.4-7.9-5.2-12.7-5.2H263.8c-3.5 0-6.9 0.9-9.9 2.7-5.3 3.3-8.4 9.1-8.4 15.2v96.6c0.1 4.7 2 9.2 5.4 12.5l64.2 63.9c-29.8 31.7-50.8 71.9-59 116.6-2 11-2.2 71.1-0.3 82 19 108.5 113.7 191 227.7 191 127.6-0.2 231-103.6 231.2-231.2 0-63.7-25.8-121.5-67.5-163.3l60.7-49.7c4.5-3.3 7.2-8.7 7.2-14.3zM604.9 596.1l-51.2 48.3 10.7 69.4c0.8 5.2-0.6 10.4-4 14.4s-8.3 6.3-13.5 6.3l2.1-0.4c-3 0-5.9-0.7-8.6-2.1l-60.1-33.6-62.6 31.9c-5.8 3.5-13.1 3.5-19 0-5.4-4.1-8-10.9-6.8-17.5l12.9-69.1-51.5-51.5c-4.8-4.8-6.5-12-4.3-18.4 2.2-6.5 7.9-11.1 14.7-12l69.8-8.9 32.2-62.6c2.5-5.9 8.2-9.8 14.7-10 6.8 0.2 12.9 4.2 15.7 10.4l30.1 63.7 69.4 11.1c6.7 1.1 12.3 5.9 14.3 12.5 1.9 6.4 0 13.5-5 18.1z" fill="#FFEDA4" /><path d="M675.1 366.4V262.3c0-4.7-1.9-9.3-5.2-12.7-3.4-3.4-7.9-5.2-12.7-5.2H223.8c-3.5 0-6.9 0.9-9.9 2.7-5.3 3.3-8.4 9.1-8.4 15.2v96.6c0.1 4.7 2 9.2 5.4 12.5l64.2 63.9c-29.8 31.7-50.8 71.9-59 116.6-2 11 6.4 21.1 17.6 21.1 8.6 0 16-6.1 17.6-14.6 2.4-13.5 6.3-26.9 11.7-39.9 30.2-73 101.5-120.6 180.5-120.6 107.8 0.2 195.2 87.6 195.4 195.4 0 79-47.6 150.3-120.6 180.5s-157.1 13.5-213-42.4c-28.9-28.9-47.3-65.4-54.2-103.9-1.5-8.5-9-14.6-17.6-14.6h-0.1c-11.1 0-19.5 10-17.6 20.9 19 108.5 113.7 191 227.7 191 127.6-0.2 231-103.6 231.2-231.2 0-63.7-25.8-121.5-67.5-163.3l60.7-49.7c4.5-3.2 7.2-8.6 7.2-14.2z m-330 18c-15.4 7.2-29.8 16.1-43.1 26.5l-60.7-59.1v-71.6h103.8v104.2z m161.1-13.3c-19.9-5.6-40.9-8.6-62.6-8.6s-42.7 3-62.6 8.6v-90.9h125.3l-0.1 90.9z m132.4-13.6l-59 49.3c-11.8-8.6-24.3-16.1-37.6-22.3V280.2h96.6v77.3z" fill="#333333" /><path d="M764.6 259.7l-22.3-2.3-14.5 17-4.7-21.9-20.6-8.6 19.4-11.2 1.7-22.3 16.7 15 21.7-5.2-9.1 20.4z" fill="#FFEDA4" /></svg>