<svg t="1588335895677" class="icon" viewBox="0 0 1280 1024" version="1.1" xmlns="http://www.w3.org/2000/svg" p-id="1496" width="200" height="200"><path d="M1220.266667 1016.242424c18.618182-58.181818 28.70303-119.466667 28.70303-183.854545C1248.969697 496.484848 976.678788 224.969697 640 224.969697S31.030303 496.484848 31.030303 832.387879c0 64.387879 10.084848 125.672727 28.70303 183.854545h1160.533334z" fill="#F0F7FE" p-id="1497"></path><path d="M993.745455 1016.242424c29.478788-55.078788 45.769697-117.139394 45.769697-183.854545C1039.515152 612.848485 860.315152 434.424242 640 434.424242S240.484848 612.848485 240.484848 832.387879c0 66.715152 16.290909 128.775758 45.769697 183.854545h707.49091z" fill="#E7EEFC" p-id="1498"></path><path d="M1045.721212 885.139394H218.763636c-8.533333 0-15.515152-6.981818-15.515151-16.290909 0-8.533333 6.981818-16.290909 15.515151-16.290909h826.181819c8.533333 0 15.515152 6.981818 15.515151 16.290909 0 9.309091-6.206061 16.290909-14.739394 16.290909z m146.618182 0h-77.575758c-8.533333 0-15.515152-6.981818-15.515151-16.290909 0-8.533333 6.981818-16.290909 15.515151-16.290909h77.575758c8.533333 0 15.515152 6.981818 15.515151 16.290909 0 9.309091-6.981818 16.290909-15.515151 16.290909z m-1037.187879 0H77.575758c-8.533333 0-15.515152-6.981818-15.515152-16.290909 0-8.533333 6.981818-16.290909 15.515152-16.290909h77.575757c8.533333 0 15.515152 6.981818 15.515152 16.290909 0 9.309091-6.981818 16.290909-15.515152 16.290909zM394.084848 1024h-22.496969c-8.533333 0-15.515152-6.981818-15.515152-16.290909s6.981818-16.290909 15.515152-16.290909h22.496969c8.533333 0 15.515152 6.981818 15.515152 16.290909s-7.757576 16.290909-15.515152 16.290909z m867.29697 0H456.145455c-8.533333 0-15.515152-6.981818-15.515152-16.290909s6.981818-16.290909 15.515152-16.290909h805.236363c8.533333 0 15.515152 6.981818 15.515152 16.290909s-6.981818 16.290909-15.515152 16.290909z m-946.424242 0H20.945455c-8.533333 0-15.515152-6.981818-15.515152-16.290909s6.981818-16.290909 15.515152-16.290909h294.012121c8.533333 0 15.515152 6.981818 15.515151 16.290909s-6.981818 16.290909-15.515151 16.290909z" fill="#8A98B6" p-id="1499"></path><path d="M899.878788 884.363636H372.363636c-34.133333 0-62.060606-27.927273-62.060606-62.060606V116.363636c0-34.133333 27.927273-62.060606 62.060606-62.060606h527.515152c34.133333 0 62.060606 27.927273 62.060606 62.060606v705.939394c0 34.133333-27.927273 62.060606-62.060606 62.060606zM372.363636 85.333333c-17.066667 0-31.030303 13.963636-31.030303 31.030303v705.939394c0 17.066667 13.963636 31.030303 31.030303 31.030303h527.515152c17.066667 0 31.030303-13.963636 31.030303-31.030303V116.363636c0-17.066667-13.963636-31.030303-31.030303-31.030303H372.363636z" fill="#464C5B" p-id="1500"></path><path d="M892.89697 861.090909H371.587879c-25.6 0-45.769697-20.945455-45.769697-45.769697V115.587879c0-25.6 20.945455-45.769697 45.769697-45.769697h521.309091c25.6 0 45.769697 20.945455 45.769697 45.769697V814.545455c0 25.6-20.945455 46.545455-45.769697 46.545454z" fill="#DBE0ED" p-id="1501"></path><path d="M899.878788 884.363636H372.363636c-34.133333 0-62.060606-27.927273-62.060606-62.060606V116.363636c0-34.133333 27.927273-62.060606 62.060606-62.060606h527.515152c34.133333 0 62.060606 27.927273 62.060606 62.060606v705.939394c0 34.133333-27.927273 62.060606-62.060606 62.060606zM372.363636 85.333333c-17.066667 0-31.030303 13.963636-31.030303 31.030303v705.939394c0 17.066667 13.963636 31.030303 31.030303 31.030303h527.515152c17.066667 0 31.030303-13.963636 31.030303-31.030303V116.363636c0-17.066667-13.963636-31.030303-31.030303-31.030303H372.363636z" fill="#8A98B6" p-id="1502"></path><path d="M763.345455 799.030303H395.636364V139.636364h496.484848v536.048484" fill="#FFFFFF" p-id="1503"></path><path d="M750.157576 799.030303H380.121212V124.121212h504.242424v543.806061c0 4.654545-3.10303 7.757576-7.757575 7.757575s-7.757576-3.10303-7.757576-7.757575V139.636364H395.636364v643.878788h354.521212c4.654545 0 7.757576 3.10303 7.757576 7.757575s-3.10303 7.757576-7.757576 7.757576z" fill="#8A98B6" p-id="1504"></path><path d="M589.575758 54.30303H480.969697v73.69697c0 20.169697 16.290909 34.909091 35.684848 34.909091h238.933334c20.169697 0 35.684848-16.290909 35.684848-34.909091V54.30303H684.993939" fill="#FFFFFF" p-id="1505"></path><path d="M748.606061 170.666667h-232.727273c-23.272727 0-42.666667-19.393939-42.666667-42.666667V46.545455h113.260606c4.654545 0 7.757576 3.10303 7.757576 7.757575s-3.10303 7.757576-7.757576 7.757576H488.727273v65.163636c0 15.515152 12.412121 27.151515 27.151515 27.151516h233.50303c15.515152 0 27.151515-12.412121 27.151515-27.151516V62.060606H679.563636c-4.654545 0-7.757576-3.10303-7.757575-7.757576s3.10303-7.757576 7.757575-7.757575H791.272727v80.678787c0.775758 24.048485-18.618182 43.442424-42.666666 43.442425z" fill="#8A98B6" p-id="1506"></path><path d="M597.333333 54.30303c0-25.6 20.945455-46.545455 46.545455-46.545454s46.545455 20.945455 46.545454 46.545454" fill="#FFFFFF" p-id="1507"></path><path d="M682.666667 62.060606c-4.654545 0-7.757576-3.10303-7.757576-7.757576 0.775758-20.945455-17.066667-38.787879-38.787879-38.787878s-39.563636 17.066667-39.563636 38.787878c0 4.654545-3.10303 7.757576-7.757576 7.757576s-7.757576-3.10303-7.757576-7.757576c0-29.478788 24.048485-54.30303 54.303031-54.30303s54.30303 24.048485 54.30303 54.30303c0.775758 4.654545-2.327273 7.757576-6.981818 7.757576z" fill="#8A98B6" p-id="1508"></path><path d="M612.848485 46.545455c0 8.533333 6.981818 15.515152 15.515151 15.515151s15.515152-6.981818 15.515152-15.515151-6.981818-15.515152-15.515152-15.515152-15.515152 6.981818-15.515151 15.515152z" fill="#4686D3" p-id="1509"></path><path d="M584.145455 458.472727c-3.10303 0-6.206061 0.775758-7.757576 2.327273-1.551515 1.551515-2.327273 4.654545-2.327273 8.533333 0 7.757576 3.878788 11.636364 10.860606 11.636364h41.115152v38.787879c0 5.430303 0.775758 8.533333 2.327272 10.860606s3.878788 4.654545 7.757576 4.654545 6.981818-0.775758 8.533333-3.10303 2.327273-5.430303 2.327273-10.860606v-38.787879h41.115152c6.981818 0 10.860606-3.878788 10.860606-10.860606 0-7.757576-3.878788-11.636364-10.860606-11.636364h-41.115152v-18.618181h41.115152c6.981818 0 10.860606-3.878788 10.860606-10.860606 0-7.757576-3.878788-11.636364-10.860606-11.636364h-30.254546l38.012121-71.369697c2.327273-3.878788 3.10303-6.981818 3.103031-9.309091 0-2.327273-1.551515-4.654545-3.878788-6.981818-2.327273-1.551515-5.430303-3.10303-7.757576-3.10303-3.10303 0-5.430303 2.327273-7.757576 6.981818l-42.666666 81.454545-42.666667-81.454545c-2.327273-6.981818-4.654545-9.309091-7.757576-9.309091s-5.430303 0.775758-7.757575 3.10303c-2.327273 1.551515-3.10303 3.878788-3.103031 6.981818s0.775758 6.206061 2.327273 8.533334l38.012121 71.369697h-30.254545c-3.10303 0-6.206061 0.775758-7.757576 2.327272s-2.327273 4.654545-2.327273 8.533334c0 7.757576 3.878788 11.636364 10.860606 11.636363h41.115152V457.69697h-43.442424v0.775757z" fill="#F8662A" p-id="1510"></path><path d="M806.787879 612.848485c-59.733333 0-108.606061 48.872727-108.606061 108.60606s48.872727 108.606061 108.606061 108.606061 108.606061-48.872727 108.60606-108.606061-48.872727-108.606061-108.60606-108.60606z" fill="#4DC45D" p-id="1511"></path><path d="M866.521212 688.09697l-72.921212 76.8c-1.551515 1.551515-3.10303 3.10303-5.430303 3.10303s-4.654545-0.775758-6.206061-2.327273l-35.684848-38.012121c-3.10303-3.10303-3.10303-7.757576 0-10.860606 1.551515-1.551515 3.10303-2.327273 5.430303-2.327273 2.327273 0 3.878788 0.775758 5.430303 2.327273l31.030303 32.581818 68.266667-72.145454c1.551515-1.551515 3.10303-2.327273 5.430303-2.327273 2.327273 0 3.878788 0.775758 5.430303 2.327273 2.327273 3.10303 2.327273 7.757576-0.775758 10.860606z" fill="#FFFFFF" p-id="1512"></path></svg>