<?xml version="1.0" standalone="no"?><!DOCTYPE svg PUBLIC "-//W3C//DTD SVG 1.1//EN" "http://www.w3.org/Graphics/SVG/1.1/DTD/svg11.dtd"><svg class="icon" width="200px" height="200.00px" viewBox="0 0 1000 1000" version="1.1" xmlns="http://www.w3.org/2000/svg"><path fill="#1296db" d="M577.4222 750.3483l19.6645 0 0 3.3917-19.6645 0 0-3.3917ZM663.9421 729.3585l4.8669 0 0 15.7293-4.8669 0 0-15.7293ZM438.1089 737.3701h-15.165339678624717c-0.049 0.066-0.0979 0.1229-0.1469 0.1719 1.9008 2.4423 4.3023 4.449 7.2024 6.0219C433.3899 741.7451 436.0942 739.6805 438.1089 737.3701zM447.5479 729.5544h-35.9840781422234v36.818037370662694h35.9840781422234V729.5543621424673zM440.1246 764.7505c-7.2434-1.6049-15.0264-2.981-23.3501-4.1282l1.0323-3.3927c8.1928 1.0813 16.0748 2.3434 23.6449 3.7844L440.1246 764.7505zM421.9362 754.0837l0.9834-3.2928c4.8169 0.7205 9.8807 1.54 15.1893 2.4573l-1.0323 3.4397C431.702 755.6077 426.6552 754.7393 421.9362 754.0837zM444.8436 751.5275c-5.8163-1.3271-10.7332-2.8271-14.7466-4.498-4.0154 1.8028-9.3401 3.5636-15.9768 5.2844-0.4587-1.0813-1.0164-2.1306-1.6719-3.1459 5.7513-1.1802 10.5033-2.5313 14.2559-4.0553-2.3105-1.5899-4.3013-3.4167-5.9732-5.4803-1.557 1.491-3.2529 2.949-5.0878 4.374-0.6556-0.6875-1.4581-1.491-2.4085-2.4084 4.4891-3.2448 8.1768-7.0612 11.06-11.4532l3.2449 1.523c-0.6066 0.9014-1.2622 1.7868-1.9667 2.6542h17.40191498015764v2.900033777099127c-2.4085 2.917-5.4805 5.5472-9.2171 7.8907 3.4568 1.1632 7.6931 2.0716 12.7069 2.7272C445.7121 749.316 445.1714 750.5441 444.8436 751.5275zM679.2783 729.2596l4.9159 0 0 15.8283-4.9159 0 0-15.8283ZM577.4222 756.7879l19.6645 0 0 3.3917-19.6645 0 0-3.3917ZM821.2499 255.3868c-76.5033-60.6039-174.8646-85.4421-268.2581-109.2859-74.5165-18.8762-102.3358-22.8505-151.0198-52.6553-35.7682-22.8505-115.2516-62.5906-122.2062-53.6496-7.9489 7.9486 16.8902 34.7724 26.8259 67.5582 14.9035 46.6953 2.9811 84.4477-34.7738 113.2602-87.4323 66.5649-201.6905 182.8061-193.7416 343.7539 10.929 219.5651 211.6262 371.5721 457.0329 355.6759 246.4-15.8962 412.3234-174.8584 417.2912-394.4226C955.3794 419.3157 908.6822 326.9193 821.2499 255.3868zM531.1337 559.4007l37.754-39.7401 40.7361-41.7277c3.9745-2.98 2.9801-4.9676-1.9867-5.961-2.9801 0-26.8259-4.9676-50.6707-9.9343l-46.6973-9.9353c-0.9934-54.643 14.9025-89.4164 41.7294-93.3897 34.7738-3.9743 70.5421 41.7267 83.4578 125.1821 10.93 70.5392-12.9158 131.1431-45.7029 134.1241C566.9009 620.998 546.0362 598.1475 531.1337 559.4007zM839.1335 572.316c-20.8647 4.9676-37.755-21.8572-49.6774-61.5982 12.9158-11.9219 23.8448-22.8505 34.7738-31.7914 18.878-15.8962 34.7748-31.7924 37.755-34.7724s1.9867-4.9676-1.9867-5.961c-2.9801 0-22.8514-2.98-43.7162-6.9543-11.9234-2.98-25.8325-4.9676-40.7361-7.9486 0-47.6887 12.9168-92.3964 40.7361-97.364 30.7994-5.961 57.6253 52.6563 65.5742 118.2278C889.8052 523.635 865.9594 565.3617 839.1335 572.316z" /></svg>