<svg t="1588299925111" class="icon" viewBox="0 0 1448 1024" version="1.1" xmlns="http://www.w3.org/2000/svg" p-id="2161" width="32" height="32"><path d="M533.243743 528.083319c0 108.884932 88.243239 197.128171 197.12817 197.128171S927.500084 636.968251 927.500084 528.083319s-88.243239-197.128171-197.128171-197.12817S533.243743 419.198387 533.243743 528.083319zM522.23484 299.992609c-8.600706-8.600706-22.361834-8.600706-30.96254 0s-8.600706 22.361834 0 30.96254l30.96254 30.96254c8.600706 8.600706 22.361834 8.600706 30.962539 0s8.600706-22.361834 0-30.96254l-30.962539-30.96254zM938.508987 299.992609l-30.96254 30.96254c-8.600706 8.600706-8.600706 22.361834 0 30.96254s22.361834 8.600706 30.96254 0l30.96254-30.96254c8.600706-8.600706 8.600706-22.361834 0-30.96254-8.428691-8.600706-22.361834-8.600706-30.96254 0zM467.534352 473.382832h-43.863598c-12.040988 0-21.845792 9.804804-21.845792 21.845792 0 12.040988 9.804804 21.845792 21.845792 21.845792h43.863598c12.040988 0 21.845792-9.804804 21.845792-21.845792 0-12.040988-9.804804-21.845792-21.845792-21.845792zM1037.073072 473.382832h-43.863598c-12.040988 0-21.845792 9.804804-21.845792 21.845792 0 12.040988 9.804804 21.845792 21.845792 21.845792h43.863598c12.040988 0 21.845792-9.804804 21.845792-21.845792 0.172014-12.040988-9.63279-21.845792-21.845792-21.845792zM708.526121 221.38216v43.863598c0 12.040988 9.804804 21.845792 21.845792 21.845792 12.040988 0 21.845792-9.804804 21.845792-21.845792v-43.863598c0-12.040988-9.804804-21.845792-21.845792-21.845792-12.040988 0-21.845792 9.804804-21.845792 21.845792zM686.680329 834.784478c0 12.040988 9.804804 21.845792 21.845792 21.845792h43.863598c12.040988 0 21.845792-9.804804 21.845793-21.845792 0-12.040988-9.804804-21.845792-21.845793-21.845792h-43.863598c-12.040988 0-21.845792 9.804804-21.845792 21.845792zM642.816731 769.075088c0 12.040988 9.804804 21.845792 21.845792 21.845792h131.418781c12.040988 0 21.845792-9.804804 21.845792-21.845792 0-12.040988-9.804804-21.845792-21.845792-21.845792h-131.418781c-12.040988-0.172014-21.845792 9.63279-21.845792 21.845792z" fill="#f4ea2a" p-id="2162"></path></svg>