<?xml version="1.0" standalone="no"?><!DOCTYPE svg PUBLIC "-//W3C//DTD SVG 1.1//EN" "http://www.w3.org/Graphics/SVG/1.1/DTD/svg11.dtd"><svg class="icon" width="32px" height="32.00px" viewBox="0 0 1024 1024" version="1.1" xmlns="http://www.w3.org/2000/svg"><path fill="#000000" d="M699.709183 283.39366c54.649468-0.219802 167.986038-9.013277 197.40169 14.00012 23.586002 18.453558 9.39128 80.290687 16.800144 114.800983 0 10.732492 0 21.467784 0 32.200276 1.869016 8.712275-0.844207 23.139398 1.400012 33.600288 8.565273 39.925542-1.584814 90.264373 7.00006 130.201115 2.153218 10.014286-0.376603 23.934605 1.400012 32.200276 4.70264 21.880787-1.526013 45.669791 2.800024 65.800563 4.68864 21.820587-1.533013 45.622191 2.800024 65.800563 0 10.732492 0 21.467784 0 32.200276 3.613431 16.910745 6.641657 73.251427-1.400012 85.400731-6.913259 10.445489-22.640994 19.006563-36.400312 22.400192-51.794843 0-103.606487 0-155.40133 0-201.114522 0-402.290644 0-603.405165 0-15.716535-3.928434-33.482687-14.088321-39.200336-28.00024-5.255645-12.789109-0.729406-38.58853 0-51.800443 1.722015-31.174067-2.024417-65.006756 4.200036-93.800803 2.163019-10.010086-0.386403-23.934605 1.400012-32.200276 0.466204-21.931188 0.933808-43.869376 1.400012-65.800563 4.370837-20.118172-1.948817-43.939376 2.800024-65.800563 1.794815-8.265671-0.772807-22.19439 1.400012-32.200276 8.663274-39.886341-1.615614-90.311973 7.00006-130.201115 0-9.800084 0-19.600168 0-29.400252 1.544213-27.592836-0.467604-65.897164 12.600108-82.600707 12.89971-16.487941 40.205544-16.800144 70.000599-16.800144 43.396171 0 86.804943 0 130.201115 0-0.320603-32.435478-4.832841-84.968127 1.400012-113.400971 0.466204-7.466264 0.933808-14.933928 1.400012-22.400192 18.050355-68.104983 55.276673-107.641321 116.200995-133.001139 17.794152-7.407463 62.154932-19.341166 92.400791-12.600108 10.787092 2.403821 22.911196 3.48743 33.600288 7.00006 26.145224 8.591874 48.598616 22.780995 68.600587 37.800324 11.344297 8.517673 19.754169 21.795387 28.00024 33.600288 13.545116 19.392966 23.801604 40.471546 30.800264 67.200575 0.466204 7.466264 0.933808 14.933928 1.400012 22.400192C704.572825 198.949137 699.781984 250.484978 699.709183 283.39366zM372.106378 283.39366c92.858595 0 185.74379 0 278.602385 0 0-28.463644 0-56.937087 0-85.400731-0.466204-13.99872-0.933808-28.00164-1.400012-42.00036-6.171253-23.087598-17.194947-39.620339-29.400252-56.000479-4.296637-5.768049-8.342671-12.563708-14.00012-16.800144-15.15373-11.348497-32.401877-21.05058-51.800443-28.00024-14.481724-5.187044-39.595139-8.253071-57.400491-4.200036-12.468507 2.837824-21.382383 1.617014-32.200276 5.600048-44.489581 16.38434-76.877458 51.125638-89.600767 99.400851C366.790533 186.783033 371.929977 246.557945 372.106378 283.39366zM162.104581 332.394079c-7.466264 176.850914-14.933928 353.753628-22.400192 530.604542 18.417158 6.046652 50.005628 1.400012 71.400611 1.400012 51.794843 0 103.606487 0 155.40133 0 172.184674 0 344.419748 0 516.604422 0 1.19001-3.427229 1.454612-8.657674 1.400012-14.00012-4.67464-7.684666 0.789607-23.447401-1.400012-33.600288-4.335837-20.104172-3.046426-47.84541-4.200036-68.600587 0-9.800084 0-19.600168 0-29.400252-6.546456-30.34946 0.939408-67.582779-5.600048-98.000839 0-10.732492 0-21.467784 0-32.200276-4.335837-20.104172-3.046426-47.84541-4.200036-68.600587 0-9.800084 0-19.600168 0-29.400252-4.250436-19.706569 1.815816-42.999968-2.800024-64.400551-5.752649-26.675828-4.095035-64.413151-4.200036-93.800803-50.551633-5.730249-109.322736-1.416812-162.40139-1.400012 0 20.531176 0 41.069352 0 61.600527 13.697717 4.446438 28.948048 26.84383 22.400192 50.400431-5.693849 20.486375-30.294859 42.949568-60.200515 33.600288-18.940762-5.920651-43.552973-29.984057-32.200276-60.200515 3.047826-8.113069 10.610691-17.082946 16.800144-22.400192 1.400012-0.466204 2.800024-0.933808 4.200036-1.400012 0-20.531176 0-41.069352 0-61.600527-92.858595 0-185.74379 0-278.602385 0 0 20.531176 0 41.069352 0 61.600527 49.09562 24.224407 11.866502 107.221318-46.200396 81.200695-16.847744-7.550265-35.847307-39.434138-21.00018-64.400551 3.49583-5.87865 18.324757-15.582133 19.600168-18.200156 0-20.064972 0-40.135544 0-60.200515C271.486117 330.865266 212.586213 326.57703 162.104581 332.394079zM341.306115 410.794751c-1.502213 1.052809-1.324411 0.842807-4.200036 1.400012-11.074095 13.601116-13.946919 12.142304-8.400072 32.200276 7.784067 5.010643 11.316297 8.461672 25.200216 8.400072 3.48743-3.024026 10.021286-4.557039 12.600108-8.400072C378.672435 426.266283 362.677298 410.093345 341.306115 410.794751zM668.908919 410.794751c-5.573448 4.803441-23.644802 13.718717-14.00012 28.00024 3.099627 10.46649 12.538507 14.355723 26.600228 14.00012 9.056678-7.224062 16.664343-8.573673 16.800144-25.200216C690.0659 416.914203 688.88429 410.440548 668.908919 410.794751z" /></svg>