<?xml version="1.0" standalone="no"?><!DOCTYPE svg PUBLIC "-//W3C//DTD SVG 1.1//EN" "http://www.w3.org/Graphics/SVG/1.1/DTD/svg11.dtd"><svg class="icon" width="32px" height="32.00px" viewBox="0 0 1024 1024" version="1.1" xmlns="http://www.w3.org/2000/svg"><path fill="#000000" d="M426.262245 537.47023l-62.959665 0c-11.261078 0-20.218754-8.189875-20.218754-19.706887l0-117.217588c-12.79668-5.886473-31.223899-16.635684-48.627384-36.598505-25.849293-29.688297-54.513856-85.993689-42.229044-185.807792C261.441008 103.406848 285.754699 51.196394 324.656606 23.043698c35.318837-25.59336 70.637673-21.498422 77.036013-20.474688 5.374606 0.767801 35.062903 5.886473 65.519001 32.503567 28.664563 24.825559 63.471532 74.220743 67.310536 168.660241 5.886473 141.787213-56.561325 187.08746-87.785224 200.651941l0.255934 113.634518c0 5.374606-2.047469 10.237344-5.886473 14.076348C437.011456 535.678695 431.892784 537.47023 426.262245 537.47023zM384.033201 496.520854l21.754356 0-0.255934-107.236178c0-10.237344 6.910207-18.427219 16.891617-19.962821 4.862738-1.023734 77.036013-19.450953 71.14954-164.053436-5.886473-147.673686-93.671697-161.4941-97.510701-162.005968-0.767801 0-0.767801 0-1.279668-0.255934-0.767801 0-23.289957-3.839004-46.835848 13.820414-28.408629 20.986555-47.347716 64.7512-55.025724 126.431197-19.450953 158.422897 74.476677 182.992523 75.244478 183.248456 9.21361 2.303402 15.867883 10.493278 15.867883 19.962821L384.033201 496.520854zM432.404651 1024l-73.197009 0c-21.498422 0-38.901907-17.403485-38.901907-38.901907L320.305735 528.256621c0-21.498422 17.403485-38.901907 38.901907-38.901907l73.197009 0c19.706887 0 37.110372 15.356016 40.181575 35.830704 0.255934 1.023734 0.255934 2.047469 0.255934 3.071203l0 456.841472c0 1.023734 0 2.047469-0.255934 3.071203C469.515023 1008.643984 452.111538 1024 432.404651 1024zM361.511044 983.050624l70.125806 0c0 0 0 0 0-0.255934L431.63685 530.815957c0 0 0 0 0-0.255934l-70.125806 0L361.511044 983.050624zM677.333104 532.351558l-62.703732 0c-11.261078 0-20.730621-8.189875-20.730621-19.706887l0-83.94622L593.386884 20.484362c0-6.654274 3.327137-12.79668 8.445809-16.635684 5.374606-3.839004 12.284813-4.862738 18.427219-2.81527 1.535602 0.511867 37.622239 12.540746 73.96481 34.551036 52.978255 31.9917 79.851283 68.334271 80.107216 107.748045 0.255934 76.012279 0.255934 285.365962 0.255934 287.413431 0 11.261078-8.957676 20.218754-20.218754 20.474688l-56.817259 1.023734 0.255934 60.400329c0 5.374606-2.047469 10.237344-5.886473 14.076348C688.082315 530.560023 682.70771 532.351558 677.333104 532.351558zM634.848127 491.402183l22.010289 0 0-59.632528c0-11.261078 8.957676-20.218754 20.218754-20.218754l56.817259-0.767801c0-54.513856 0-205.002812-0.255934-266.938743-0.255934-39.925641-58.608794-74.732611-99.046302-92.903896l0.255934 378.269858c0 0 0 0 0 0L634.848127 491.402183zM685.778913 1023.744066l-73.197009 0c-21.498422 0-38.901907-17.403485-38.901907-38.901907L573.679997 528.256621c0-21.498422 17.403485-38.901907 38.901907-38.901907l73.197009 0c19.706887 0 37.110372 15.356016 40.181575 35.830704l0.255934 1.535602 0 459.912676-0.255934 1.535602C722.889285 1008.388051 705.4858 1023.744066 685.778913 1023.744066zM614.885306 982.794691l70.125806 0c0 0 0 0 0-0.255934L685.011112 530.560023c0 0 0 0 0-0.255934l-70.125806 0L614.885306 982.794691z" /></svg>