<?xml version="1.0" standalone="no"?><!DOCTYPE svg PUBLIC "-//W3C//DTD SVG 1.1//EN" "http://www.w3.org/Graphics/SVG/1.1/DTD/svg11.dtd"><svg class="icon" width="32px" height="26.55px" viewBox="0 0 1234 1024" version="1.1" xmlns="http://www.w3.org/2000/svg"><path fill="#000000" d="M1131.526172 466.483174V25.715721a25.715721 25.715721 0 0 0-25.715721-25.715721h-977.197388a25.715721 25.715721 0 0 0-25.715721 25.715721v441.281768a208.297338 208.297338 0 0 0-102.862883 168.695128v4.62883a24.172777 24.172777 0 0 0 0 2.571572v354.876946a25.715721 25.715721 0 0 0 51.431442 0V925.765947h1131.491712v72.518332a25.715721 25.715721 0 0 0 51.431442 0v-362.591662a208.811652 208.811652 0 0 0-102.862883-169.209443zM154.328784 51.431441h925.765946v387.278755A350.248117 350.248117 0 0 0 977.231847 411.451532V286.987443a74.57559 74.57559 0 0 0-29.315921-59.146157 69.432446 69.432446 0 0 0-61.203416-11.829232 249.442491 249.442491 0 0 1-132.693119 0 65.832245 65.832245 0 0 0-58.117529 10.800603A74.061276 74.061276 0 0 0 668.643198 284.930186V411.451532h-102.862883V286.987443a74.57559 74.57559 0 0 0-29.315921-59.146157 69.432446 69.432446 0 0 0-60.689101-11.829232 249.442491 249.442491 0 0 1-132.693119 0 65.832245 65.832245 0 0 0-58.117529 10.800603A74.061276 74.061276 0 0 0 257.191666 284.930186V411.451532a350.248117 350.248117 0 0 0-102.862882 25.715721z m771.471622 235.556002V411.451532h-205.725766V284.930186a23.658463 23.658463 0 0 1 7.714716-19.029634 14.400804 14.400804 0 0 1 13.372175 0 298.302361 298.302361 0 0 0 159.951783 0 17.48669 17.48669 0 0 1 15.943747 3.085887 22.629834 22.629834 0 0 1 8.743345 18.001004z m-411.451532 0V411.451532H308.623108V284.930186a23.658463 23.658463 0 0 1 7.714716-19.029634 14.400804 14.400804 0 0 1 13.372175 0 300.873933 300.873933 0 0 0 159.951783 0 18.001005 18.001005 0 0 1 15.943747 3.085887 22.629834 22.629834 0 0 1 8.743345 18.001004zM292.165047 462.882973h651.122049c121.378202 0 225.269714 68.918132 238.641888 154.294325H51.465901c15.429432-85.376193 119.320944-154.294324 240.699146-154.294325zM1182.957613 874.334505H51.465901v-205.725766h1131.491712z"  /></svg>