<?xml version="1.0" standalone="no"?><!DOCTYPE svg PUBLIC "-//W3C//DTD SVG 1.1//EN" "http://www.w3.org/Graphics/SVG/1.1/DTD/svg11.dtd"><svg class="icon" width="32px" height="32.00px" viewBox="0 0 1024 1024" version="1.1" xmlns="http://www.w3.org/2000/svg"><path fill="#000000" d="M1024.22789 736.8l-20.467-58.84c-33.258-89.543-130.475-138.151-222.575-107.451l-345.376-43.492h-7.675s-2.558 0-2.558 2.559h-5.117v7.675c17.909 17.908 28.142 40.933 28.142 63.958 0 25.583-7.675 48.608-25.583 66.517-35.817 38.375-94.659 38.375-130.475 5.116 0 0-2.559-2.558-5.117-2.558-5.117-5.117-10.234-5.117-17.909-2.558-71.633 46.05-89.541 150.942-40.933 286.533l20.467 58.842c2.558 7.675 12.791 12.792 23.025 10.234l739.36-263.51c5.116-2.557 7.674-5.116 10.232-7.674 2.559-7.675 2.559-12.792 2.559-15.35z m-61.4-63.958l-117.684 43.492-40.933-117.683c63.958-15.35 130.475 15.35 158.617 74.191zM768.39389 601.21l7.675 20.467-294.209-35.817c-2.558-7.675-5.116-15.35-7.675-20.467l294.21 35.817z m-491.2 120.242c23.025 20.467 53.725 30.7 86.983 30.7s66.517-15.35 89.542-40.933l5.116-5.117c20.467-23.025 30.7-53.725 30.7-84.425l301.884 38.375 23.025 66.517-163.733 58.841 28.141-86.983c2.559-10.233-2.558-17.909-10.233-20.467-10.233-2.558-17.908 2.558-20.467 10.234l-35.816 112.566-33.259 12.792 30.7-94.658c2.559-10.234-2.558-17.909-10.233-20.467-10.233-2.558-17.908 2.558-20.467 10.233L543.26089 823.784v5.117l-28.141 10.233 28.141-89.541c2.559-10.234-2.558-17.909-10.233-20.467-10.233-2.558-17.908 2.558-20.467 10.233l-35.816 115.125-117.684 43.492c-20.466-46.05-61.4-79.308-110.008-94.658-7.675-40.934 2.558-69.075 28.141-81.867z m-20.467 204.667c-10.234-30.7-15.35-61.4-17.909-89.542 33.259 12.792 61.4 38.375 76.75 69.075l-58.841 20.467z m20.466 58.842l-10.233-25.584 76.75-28.142 631.91-225.133 10.233 25.583-708.66 253.276zM226.02689 739.36c-5.117-5.117-10.234-10.234-10.234-17.91v-399.1c0-12.791-10.233-23.025-23.025-23.025s-23.025 10.234-23.025 23.025v79.309L52.06089 332.584c-5.117-2.559-7.675-5.117-7.675-10.234s0-7.675 5.117-12.791l189.316-230.25s33.259-40.934 97.217-33.259c12.792 43.492 51.167 104.892 133.034 104.892 76.75 0 117.683-58.842 133.033-102.334 33.259 0 89.542 5.117 107.45 33.259l173.967 227.692c2.559 5.116 5.117 7.675 2.559 12.791 0 5.117-2.559 7.675-7.675 10.234L760.71889 399.1v-76.75c0-12.791-10.233-23.025-23.025-23.025s-23.025 10.234-23.025 23.025v258.392h43.492V450.267l138.15-79.308c15.35-7.675 25.583-23.025 30.7-40.934 2.558-17.908 0-35.816-12.792-48.608L740.25189 53.725C699.31889-2.558 591.86889 5.117 579.07689 5.117c-10.233 0-17.908 7.675-20.466 17.908 0 2.558-20.467 84.425-94.659 84.425-79.308 0-94.658-79.308-94.658-81.867-2.559-7.675-7.675-15.35-17.909-17.908-94.658-25.583-145.825 43.492-148.383 43.492L13.68489 281.417C0.89289 294.209-1.66511 312.117 0.89289 330.025c2.558 17.909 12.792 30.7 28.142 40.934l140.708 81.867v266.067c0 33.258 23.025 58.841 53.725 63.958v-43.492zM466.51089 245.6c130.475 0 191.875-133.033 194.433-138.15 5.117-12.792 0-25.583-12.792-30.7-12.791-5.117-25.583 0-30.7 12.792 0 0-51.166 110.008-148.383 110.008S320.68489 89.542 320.68489 89.542c-5.116-12.792-20.466-17.909-30.7-12.792-12.792 5.117-17.908 20.467-12.792 30.7-2.558 5.117 61.4 138.15 189.317 138.15z" /></svg>