<?xml version="1.0" standalone="no"?><!DOCTYPE svg PUBLIC "-//W3C//DTD SVG 1.1//EN" "http://www.w3.org/Graphics/SVG/1.1/DTD/svg11.dtd"><svg class="icon" width="32px" height="32.00px" viewBox="0 0 1024 1024" version="1.1" xmlns="http://www.w3.org/2000/svg"><path fill="#000000" d="M888.832 376.832c-10.24-4.096-192.512-57.344-346.112-102.4v-67.584c0-10.24-6.144-16.384-16.384-16.384-34.816 0-63.488-28.672-63.488-63.488s28.672-63.488 63.488-63.488 63.488 28.672 63.488 63.488c0 10.24 6.144 16.384 16.384 16.384s16.384-6.144 16.384-16.384c0-55.296-40.96-96.256-96.256-96.256S430.08 71.68 430.08 126.976c0 47.104 34.816 86.016 79.872 92.16v55.296C356.352 319.488 174.08 372.736 163.84 380.928c-22.528 12.288-38.912 38.912-38.912 67.584 0 45.056 34.816 79.872 79.872 79.872 10.24 0 16.384-6.144 16.384-16.384s-6.144-16.384-16.384-16.384c-24.576 0-47.104-22.528-47.104-47.104 0-16.384 10.24-32.768 22.528-40.96 12.288-6.144 210.944-63.488 346.112-102.4 135.168 38.912 331.776 96.256 346.112 102.4 12.288 10.24 22.528 24.576 22.528 40.96 0 24.576-22.528 47.104-47.104 47.104-10.24 0-16.384 6.144-16.384 16.384s6.144 16.384 16.384 16.384c45.056 0 79.872-34.816 79.872-79.872 0-28.672-16.384-55.296-38.912-71.68zM704.512 415.744H352.256c-55.296 0-96.256 40.96-96.256 96.256v385.024c0 55.296 40.96 96.256 96.256 96.256h352.256c55.296 0 96.256-40.96 96.256-96.256V512c0-55.296-43.008-96.256-96.256-96.256z m-352.256 63.488h352.256c18.432 0 32.768 12.288 32.768 32.768v329.728c-6.144 0-10.24-4.096-16.384-6.144-6.144-6.144-16.384-12.288-34.816-12.288s-28.672 6.144-34.816 12.288c-6.144 4.096-10.24 6.144-16.384 6.144-6.144 0-10.24-4.096-16.384-6.144-6.144-6.144-16.384-12.288-34.816-12.288s-28.672 6.144-34.816 12.288c-6.144 4.096-10.24 6.144-16.384 6.144-6.144 0-10.24-4.096-16.384-6.144-6.144-6.144-16.384-12.288-34.816-12.288-16.384 0-28.672 6.144-34.816 12.288-6.144 4.096-10.24 6.144-16.384 6.144s-10.24-4.096-16.384-6.144c-6.144-6.144-16.384-12.288-34.816-12.288s-28.672 6.144-34.816 12.288c-6.144 4.096-10.24 6.144-16.384 6.144-4.096 0-4.096-2.048-6.144-4.096V512c-2.048-14.336 10.24-32.768 30.72-32.768z m382.976 417.792c0 18.432-12.288 32.768-32.768 32.768H352.256c-18.432 0-32.768-12.288-32.768-32.768v-24.576c6.144 4.096 10.24 4.096 16.384 4.096 16.384 0 28.672-6.144 34.816-12.288 6.144-4.096 10.24-6.144 16.384-6.144s10.24 4.096 16.384 6.144c6.144 6.144 16.384 12.288 34.816 12.288 18.432 0 28.672-6.144 34.816-12.288 6.144-4.096 10.24-6.144 16.384-6.144s10.24 4.096 16.384 6.144c6.144 6.144 16.384 12.288 34.816 12.288 18.432 0 28.672-6.144 34.816-12.288 6.144-4.096 10.24-6.144 16.384-6.144 6.144 0 10.24 4.096 16.384 6.144 6.144 6.144 16.384 12.288 34.816 12.288s28.672-6.144 34.816-12.288c6.144-4.096 10.24-6.144 16.384-6.144s10.24 4.096 16.384 6.144c6.144 6.144 12.288 10.24 24.576 12.288v20.48z" /></svg>