<?xml version="1.0" standalone="no"?><!DOCTYPE svg PUBLIC "-//W3C//DTD SVG 1.1//EN" "http://www.w3.org/Graphics/SVG/1.1/DTD/svg11.dtd"><svg t="1586609641168" class="icon" viewBox="0 0 1024 1024" version="1.1" xmlns="http://www.w3.org/2000/svg" p-id="20024" xmlns:xlink="http://www.w3.org/1999/xlink" width="32" height="32"><defs><style type="text/css"></style></defs><path d="M504.32 960h-353.28c-35.328 0-63.488-28.672-63.488-63.488v-327.168c0-132.608 108.032-240.128 240.128-240.128s240.128 108.032 240.128 240.128V896c0 35.328-28.16 64-63.488 64zM327.68 367.104c-111.616 0-202.24 90.624-202.24 202.24V896c0 13.824 11.264 25.6 25.6 25.6h353.28c13.824 0 25.6-11.264 25.6-25.6v-327.168c0-111.104-90.624-201.728-202.24-201.728z" fill="#000000" p-id="20025"></path><path d="M434.176 768.512H221.696c-10.752 0-18.944-8.704-18.944-18.944v-230.912c0-10.752 8.704-18.944 18.944-18.944h212.48c10.752 0 18.944 8.704 18.944 18.944v230.912c0 10.752-8.704 18.944-18.944 18.944zM240.64 730.624h174.08V537.6H240.64v193.024z" fill="#000000" p-id="20026"></path><path d="M411.648 367.104H244.224C233.472 367.104 225.28 358.4 225.28 348.16V228.864c0-10.752 8.704-18.944 18.944-18.944h167.424c10.752 0 18.944 8.704 18.944 18.944V348.16c0 10.24-8.704 18.944-18.944 18.944z m-148.48-38.4h129.536V247.808H263.168v80.896z" fill="#000000" p-id="20027"></path><path d="M345.6 242.176h-35.328c-7.168 0-13.312-6.144-13.312-13.312V104.96c0-7.168 6.144-13.312 13.312-13.312h35.328c7.168 0 13.312 6.144 13.312 13.312v123.392c0 7.68-6.144 13.824-13.312 13.824z m-22.016-26.624h8.704v-97.28h-8.704v97.28z" fill="#000000" p-id="20028"></path><path d="M869.888 840.704h-229.376c-9.728 0-18.432-7.68-18.944-17.408L573.44 222.208c-0.512-5.12 1.536-10.752 5.12-14.336 3.584-4.096 8.704-6.144 13.824-6.144h325.12c5.12 0 10.24 2.048 13.824 6.144s5.632 9.216 5.12 14.336l-47.616 600.576c-1.024 10.24-9.216 17.92-18.944 17.92z m-211.968-38.4h194.048l44.544-562.688h-283.648l45.056 562.688z" fill="#000000" p-id="20029"></path><path d="M870.4 960h-230.4c-10.752 0-18.944-8.704-18.944-18.944v-119.296c0-10.752 8.704-18.944 18.944-18.944h230.4c10.752 0 18.944 8.704 18.944 18.944v119.296c0 10.24-8.704 18.944-18.944 18.944z m-211.456-38.4h192v-80.896h-192V921.6z" fill="#000000" p-id="20030"></path><path d="M756.224 644.096c-50.688 0-90.624-63.488-90.624-144.384s39.936-144.384 90.624-144.384 90.624 63.488 90.624 144.384-39.936 144.384-90.624 144.384z m0-250.88c-24.576 0-52.736 43.52-52.736 105.984s27.648 105.984 52.736 105.984 52.736-43.52 52.736-105.984-28.16-105.984-52.736-105.984z" fill="#000000" p-id="20031"></path><path d="M482.816 104.96H245.248c0-11.776 9.728-22.016 22.016-22.016-0.512 0.512 215.552 22.016 215.552 22.016z" fill="#000000" p-id="20032"></path><path d="M482.816 124.416H245.248c-10.752 0-18.944-8.704-18.944-18.944 0-22.528 18.432-40.96 40.96-40.96h2.048l215.552 22.016c10.24 1.024 17.408 9.728 16.896 19.968s-8.704 17.92-18.944 17.92z" fill="#000000" p-id="20033"></path></svg>