<?xml version="1.0" standalone="no"?><!DOCTYPE svg PUBLIC "-//W3C//DTD SVG 1.1//EN" "http://www.w3.org/Graphics/SVG/1.1/DTD/svg11.dtd"><svg class="icon" width="200px" height="200.00px" viewBox="0 0 1024 1024" version="1.1" xmlns="http://www.w3.org/2000/svg"><path d="M512 512m-512 0a512 512 0 1 0 1024 0 512 512 0 1 0-1024 0Z" fill="#E73828" /><path d="M846.185477 516.409392L343.004261 806.918684a1.415647 1.415647 0 0 1-2.123471-1.160367V224.670112a1.415647 1.415647 0 0 1 2.123471-1.229989l503.181216 290.509292a1.42725 1.42725 0 0 1 0 2.459977z" fill="#E73828" /><path d="M382.665579 794.792856a59.178678 59.178678 0 0 1-58.935002-59.016227V294.570574a58.935001 58.935001 0 0 1 88.36189-51.056115L794.189466 464.146496a58.911794 58.911794 0 0 1 0 102.112229L412.092467 786.809537a58.818965 58.818965 0 0 1-29.426888 7.983319z m0-524.891668a24.739008 24.739008 0 0 0-24.657783 24.669386v441.206055a24.657783 24.657783 0 0 0 36.980872 21.339136l382.062189-220.597226a24.622972 24.622972 0 0 0 0-42.678271L394.988668 273.243042a24.599764 24.599764 0 0 0-12.323089-3.341854z" fill="#FFFFFF" /><path d="M512 512m-512 0a512 512 0 1 0 1024 0 512 512 0 1 0-1024 0Z" fill="#E73828" /><path d="M846.185477 516.409392L343.004261 806.918684a1.415647 1.415647 0 0 1-2.123471-1.160367V224.670112a1.415647 1.415647 0 0 1 2.123471-1.229989l503.181216 290.509292a1.42725 1.42725 0 0 1 0 2.459977z" fill="#E73828" /><path d="M382.665579 811.966277a76.38691 76.38691 0 0 1-76.073611-76.189648V294.570574a76.073611 76.073611 0 0 1 114.110416-65.862388l382.062189 220.585622a76.073611 76.073611 0 0 1 0 131.771191l-382.062189 220.585622a75.992385 75.992385 0 0 1-38.036805 10.315656z m0-524.949687a7.484362 7.484362 0 0 0-3.759587 1.07914 7.147856 7.147856 0 0 0-3.759586 6.486447v441.194452a7.530777 7.530777 0 0 0 11.267156 6.509655l382.073792-220.60883a7.495966 7.495966 0 0 0 0-12.996101l-382.073792-220.585623a7.298704 7.298704 0 0 0-3.747983-1.07914z" fill="#FFFFFF" /></svg>