<svg t="1588169382169" class="icon" viewBox="0 0 1024 1024" version="1.1" xmlns="http://www.w3.org/2000/svg" p-id="6093" width="300" height="300"><path d="M568.086082 511.187158l215.312754-105.850062-10.476627-18.06315-215.854649 106.753219-215.674016-106.030693-10.476627 18.063151 215.312753 105.127535V722.526019h21.856412z m188.940554 134.38984L596.083965 725.596754a87.967543 87.967543 0 0 1-77.310284 0l-161.303933-80.019756a72.252602 72.252602 0 0 1-41.906509-63.401658v-153.898042a72.252602 72.252602 0 0 1 41.906509-63.221027l160.94267-80.019757a88.328806 88.328806 0 0 1 77.490916 0l161.303934 80.019757a72.252602 72.252602 0 0 1 41.906509 63.221027v153.898042a72.252602 72.252602 0 0 1-41.906509 63.401658z m0 0" fill="#eb9b2e" p-id="6094"></path></svg>