<svg t="1585920367868" class="icon" viewBox="0 0 1024 1024" version="1.1" xmlns="http://www.w3.org/2000/svg" p-id="2370" width="200" height="200"><path d="M351.357337 358.611501s141.293461-206.781035-109.431137-218.836349S105.14376 522.758207 105.14376 522.758207s386.79409 697.393412 834.35733 446.928068c0 0 53.004492-234.923063-180.37601-173.37615 0 0-35.906687 20.519959-38.460339 48.7268 0 0-359.066868-148.747015-410.347321-320.567641 0 0-42.310262-97.466563-17.953343-135.926902 0 0 35.232626 15.088586 58.99326-29.930881z" fill="#73B767" p-id="2371"></path><path d="M458.010707 110.675798a105.153445 54.326688 83.67 1 0 107.990955-11.979549 105.153445 54.326688 83.67 1 0-107.990955 11.979549Z" fill="#73B767" p-id="2372"></path><path d="M556.138948 258.496405a54.326688 105.153445 67.93 1 0 194.896757-79.020518 54.326688 105.153445 67.93 1 0-194.896757 79.020518Z" fill="#73B767" p-id="2373"></path></svg>