<svg t="1585920391943" class="icon" viewBox="0 0 1024 1024" version="1.1" xmlns="http://www.w3.org/2000/svg" p-id="2509" width="200" height="200"><path d="M246.951744 248.437485c-123.67536 82.905521-167.769156 284.325205 37.711799 567.139521 119.299825 164.118847 347.637513 208.962043 466.562637 208.418123a82.047336 82.047336 0 0 0 77.732236-56.495175c37.228314-112.905741 103.743708-375.558749-15.519855-539.677596-205.154602-282.234134-473.778645-241.536818-566.486817-179.384873z m320.066804 440.418208c-37.252488 27.075137-85.419641 24.307188-133.913147-42.413687-28.199239-38.799639-12.473903-100.891149-3.626134-127.591585a19.339384 19.339384 0 0 1 18.360328-13.356262c28.114629-0.132958 92.031293 4.085445 120.230532 42.885084 48.553941 66.86592 36.212996 113.389225-1.051579 140.47645z" fill="#EAC063" p-id="2510"></path><path d="M583.318939 110.314385a108.989516 45.532162 88.84 1 0 91.045662-1.843546 108.989516 45.532162 88.84 1 0-91.045662 1.843546Z" fill="#EAC063" p-id="2511"></path><path d="M709.645338 273.692034a45.532162 108.989516 49.86 1 0 166.638764-140.521814 45.532162 108.989516 49.86 1 0-166.638764 140.521814Z" fill="#EAC063" p-id="2512"></path></svg>