<svg t="1586587894295" class="icon" viewBox="0 0 1171 1024" version="1.1" xmlns="http://www.w3.org/2000/svg" p-id="3026" width="200" height="200"><path d="M936.75130208 216.6875s0-2.63671875 0 0c-97.55859375-97.55859375-250.48828125-100.1953125-350.68359375-10.546875-100.1953125-89.6484375-253.125-87.01171875-348.046875 7.91015625-97.55859375 97.55859375-100.1953125 255.76171875-2.63671875 353.3203125l2.63671875 2.63671875 292.67578125 290.0390625c31.640625 31.640625 81.73828125 31.640625 113.37890625 0l292.67578125-290.0390625c97.55859375-97.55859375 97.55859375-255.76171875 0-353.3203125z m-94.921875 205.6640625c-7.91015625 0-13.18359375-5.2734375-13.18359375-13.18359375 0-47.4609375-39.55078125-87.01171875-87.01171875-87.01171875-7.91015625 0-13.18359375-5.2734375-13.18359375-13.18359375s5.2734375-13.18359375 13.18359375-13.18359375c63.28125 0 113.37890625 50.09765625 113.37890625 113.37890625 0 7.91015625-5.2734375 13.18359375-13.18359375 13.18359375z" fill="#ef8383" p-id="3027"></path></svg>