<svg t="1585920315551" class="icon" viewBox="0 0 1065 1024" version="1.1" xmlns="http://www.w3.org/2000/svg" p-id="2233" width="200" height="200"><path d="M1038.790285 476.610118c51.774913-49.679751 24.100785-137.149534-46.826218-148.023808l-217.909657-33.419755a86.595727 86.595727 0 0 1-64.821472-47.867372L613.215411 48.850106c-31.247471-64.57725-122.997553-65.284206-155.286178-1.195399l-99.102427 196.932334a86.557166 86.557166 0 0 1-65.554135 46.839072l-218.385247 30.000657c-71.081248 9.768852-100.117874 96.801606-49.12704 147.291144l156.661529 155.106226a86.57002 86.57002 0 0 1 24.306445 76.814021l-38.972576 216.945626c-12.673799 70.618513 61.132444 125.131276 124.899908 92.238525l195.929742-101.069052a86.57002 86.57002 0 0 1 80.567317 0.629834l194.335876 104.115391c63.24046 33.908198 137.895051-19.422019 126.326675-90.233339l-35.579186-217.57546a86.57002 86.57002 0 0 1 25.488991-76.428409z m-176.469161-48.754281l-390.75406 314.132845a21.851378 21.851378 0 0 1-30.694759-3.329122l-4.550229-5.668505a21.388643 21.388643 0 0 1-4.100347-9.11331l-127.059338-158.101149a20.810224 20.810224 0 0 1 3.174877-29.165164l5.385722-4.31886a20.810224 20.810224 0 0 1 29.165163 3.174876l119.449917 148.589373L830.405258 388.189158a21.851378 21.851378 0 0 1 30.69476 3.341976l4.550228 5.655651a21.851378 21.851378 0 0 1-3.329122 30.669052z" fill="#C59BC1" p-id="2234"></path></svg>