<svg t="1585920273833" class="icon" viewBox="0 0 1024 1024" version="1.1" xmlns="http://www.w3.org/2000/svg" p-id="2094" width="200" height="200"><path d="M182.067002 227.234016a94.073143 42.677398 21.8 1 0 31.698026-79.250719 94.073143 42.677398 21.8 1 0-31.698026 79.250719Z" fill="#C0CF71" p-id="2095"></path><path d="M279.069832 94.073143a94.073143 42.677398 90 1 0 85.354796 0 94.073143 42.677398 90 1 0-85.354796 0Z" fill="#C0CF71" p-id="2096"></path><path d="M774.779274 187.631169H437.184827a140.111676 140.111676 0 0 0-140.098797 140.137431v556.119724a140.111676 140.111676 0 0 0 140.098797 140.111676h337.594447a140.111676 140.111676 0 0 0 140.098798-140.111676V327.7686A140.111676 140.111676 0 0 0 774.779274 187.631169z m-171.276221 536.300618H413.914442a15.363348 15.363348 0 1 1 0-30.726696h189.575733a15.363348 15.363348 0 0 1 0 30.726696z m204.282308-111.909049H413.914442a15.363348 15.363348 0 1 1 0-30.726697H807.772483a15.363348 15.363348 0 1 1 0 30.726697z m0-111.921928H413.914442a15.363348 15.363348 0 1 1 0-30.713819H807.772483a15.363348 15.363348 0 1 1 0 30.713819z m0-111.90905H413.914442a15.363348 15.363348 0 0 1 0-30.726696H807.772483a15.363348 15.363348 0 1 1 0 30.726696z" fill="#C0CF71" p-id="2097"></path></svg>