<?xml version="1.0" standalone="no"?><!DOCTYPE svg PUBLIC "-//W3C//DTD SVG 1.1//EN" "http://www.w3.org/Graphics/SVG/1.1/DTD/svg11.dtd"><svg t="1585920151242" class="icon" viewBox="0 0 1024 1024" version="1.1" xmlns="http://www.w3.org/2000/svg" p-id="1867" xmlns:xlink="http://www.w3.org/1999/xlink" width="200" height="200"><defs><style type="text/css"></style></defs><path d="M533.391026 61.776361c-265.690929 0-481.07814 215.373739-481.07814 481.07814S267.700097 1024 533.391026 1024s481.158971-215.45457 481.158971-481.145499-215.468042-481.07814-481.158971-481.07814z m379.056165 481.07814H536.300936a16.166165 16.166165 0 0 1-16.166165-16.166166v-376.132782a16.166165 16.166165 0 0 1 32.33233 0v359.993561h359.98009a16.166165 16.166165 0 0 1 0 32.33233z" fill="#54b5d8" p-id="1868"></path><path d="M50.609387 181.111038a61.943357 29.557139 30 1 0 29.557139-51.194467 61.943357 29.557139 30 1 0-29.557139 51.194467Z" fill="#54b5d8" p-id="1869"></path><path d="M149.385575 71.5255a69.016055 26.108357 83.7 1 0 51.901375-5.729965 69.016055 26.108357 83.7 1 0-51.901375 5.729965Z" fill="#54b5d8" p-id="1870"></path></svg>