<svg t="1588167017356" class="icon" viewBox="0 0 1316 1024" version="1.1" xmlns="http://www.w3.org/2000/svg" p-id="14734" id="mx_n_1588167017365" width="300" height="300"><path d="M1268.34584 149.426077h-851.363183c-24.707033 0-44.781498 15.802207-44.781497 35.310469v109.251412c0 19.508262 20.074464 35.310468 44.781497 35.310468h41.667382l99.780383 436.722547h575.056196l99.780383-436.645338h35.078839c24.73277 0 44.781498-15.802207 44.781498-35.310468V184.736546c0.051473-19.508262-19.997255-35.310468-44.781498-35.310469z" fill="#FF5E39" p-id="14735"></path><path d="M692.182975 683.535514h-56.157027l-24.192304-328.938116h104.541634l-24.192303 328.938116zM879.518907 683.535514h-56.182764l-24.192304-328.938116h104.567371l-24.192303 328.938116zM1066.829101 683.535514H1010.672074l-24.192303-328.938116h104.541634l-24.192304 328.938116z" fill="#E2472D" p-id="14736"></path><path d="M527.417948 818.266054l-52.605391 16.857402-250.930806-777.756813H143.944204V14.335227h124.101369v0.128682l259.372375 803.802145z" fill="#CECECE" p-id="14737"></path><path d="M475.22434 788.900715m20.33183 0l764.94004 0q20.331829 0 20.331829 20.33183l0 4.992879q0 20.331829-20.331829 20.33183l-764.94004 0q-20.331829 0-20.33183-20.33183l0-4.992879q0-20.331829 20.33183-20.33183Z" fill="#CECECE" p-id="14738"></path><path d="M0 0m16.188254 0l159.669202 0q16.188254 0 16.188254 16.188254l0 38.192955q0 16.188254-16.188254 16.188254l-159.669202 0q-16.188254 0-16.188254-16.188254l0-38.192955q0-16.188254 16.188254-16.188254Z" fill="#FFC931" p-id="14739"></path><path d="M342.140936 947.205883a74.404201 74.146836 0 1 0 148.808402 0 74.404201 74.146836 0 1 0-148.808402 0Z" fill="#939393" p-id="14740"></path><path d="M412.655313 942.66823a32.299299 82.40825 32.42 1 0 88.361667-139.128338 32.299299 82.40825 32.42 1 0-88.361667 139.128338Z" fill="#CECECE" p-id="14741" data-spm-anchor-id="a313x.7781069.0.i11" class=""></path><path d="M390.345387 947.205883a26.19975 26.12254 0 1 0 52.399499 0 26.19975 26.12254 0 1 0-52.399499 0Z" fill="#FFFFFF" p-id="14742"></path><path d="M409.493338 947.205883a7.051799 7.026063 0 1 0 14.103598 0 7.051799 7.026063 0 1 0-14.103598 0Z" fill="#939393" p-id="14743"></path><path d="M468.893163 819.218304a22.056174 21.978965 0 1 0 44.112349 0 22.056174 21.978965 0 1 0-44.112349 0Z" fill="#FFFFFF" p-id="14744"></path><path d="M483.897538 819.218304a7.051799 7.026063 0 1 0 14.103599 0 7.051799 7.026063 0 1 0-14.103599 0Z" fill="#939393" p-id="14745"></path><path d="M1164.344673 938.867259a74.404201 74.146836 0 1 0 148.808402 0 74.404201 74.146836 0 1 0-148.808402 0Z" fill="#939393" p-id="14746"></path><path d="M1171.23773 881.989024a82.40825 32.299299 57.58 1 0 54.530314-34.632696 82.40825 32.299299 57.58 1 0-54.530314 34.632696Z" fill="#CECECE" p-id="14747"></path><path d="M1212.549124 938.867259a26.19975 26.12254 0 1 0 52.399499 0 26.19975 26.12254 0 1 0-52.399499 0Z" fill="#FFFFFF" p-id="14748"></path><path d="M1231.697075 938.867259a7.051799 7.026063 0 1 0 14.103598 0 7.051799 7.026063 0 1 0-14.103598 0Z" fill="#939393" p-id="14749"></path><path d="M1142.288498 810.87968a22.056174 21.978965 0 1 0 44.112349 0 22.056174 21.978965 0 1 0-44.112349 0Z" fill="#FFFFFF" p-id="14750"></path><path d="M1157.292874 810.87968a7.051799 7.026063 0 1 0 14.103598 0 7.051799 7.026063 0 1 0-14.103598 0Z" fill="#939393" p-id="14751"></path></svg>