<svg t="1586589901063" class="icon" viewBox="0 0 1024 1024" version="1.1" xmlns="http://www.w3.org/2000/svg" p-id="5602" width="200" height="200"><path d="M765.67552 492.01152C765.67552 157.62432 512 19.26144 512 19.26144S258.32448 157.62432 258.32448 492.01152c-69.18144 0-207.55456 196.02432 23.06048 322.85696a96.84992 96.84992 0 0 1 46.08-115.3024s0 57.6512 57.66144 103.77216h253.66528c57.66144-46.08 57.66144-103.77216 57.66144-103.77216a96.84992 96.84992 0 0 1 46.08 115.3024c230.69696-126.83264 92.32384-322.85696 23.1424-322.85696z m20.29568 210.54464A162.59072 162.59072 0 0 0 723.968 644.608a67.25632 67.25632 0 0 0-29.952-7.23968 56.6272 56.6272 0 0 0-31.30368 9.14432 58.71616 58.71616 0 0 0-27.6992 52.224 81.62304 81.62304 0 0 1-20.48 43.13088H409.46688a81.62304 81.62304 0 0 1-20.48-43.13088 58.71616 58.71616 0 0 0-27.6992-52.224 56.6272 56.6272 0 0 0-31.29344-9.14432 67.29728 67.29728 0 0 0-29.96224 7.23968 162.59072 162.59072 0 0 0-62.0032 57.94816 99.18464 99.18464 0 0 1-22.528-71.12704c3.91168-41.1136 33.56672-72.704 46.20288-78.06976a61.44 61.44 0 0 0 58.09152-61.34784c0-229.376 131.584-353.93536 192.23552-399.1552 60.66176 45.21984 192.23552 169.74848 192.23552 399.1552a61.44 61.44 0 0 0 58.09152 61.34784c12.63616 5.33504 42.2912 36.95616 46.20288 78.06976a99.18464 99.18464 0 0 1-22.58944 71.12704zM512 236.73856a112.64 112.64 0 1 0 112.64 112.64 112.76288 112.76288 0 0 0-112.64-112.64z m0 184.32a71.68 71.68 0 1 1 71.68-71.68 71.77216 71.77216 0 0 1-71.68 71.68z m0 419.84a30.72 30.72 0 0 0-30.72 30.72v102.4a30.72 30.72 0 0 0 61.44 0v-102.4a30.72 30.72 0 0 0-30.72-30.72z m-92.16 0a30.72 30.72 0 0 0-30.72 30.72v40.96a30.72 30.72 0 0 0 61.44 0v-40.96a30.72 30.72 0 0 0-30.72-30.72z m194.56 0a30.72 30.72 0 0 0-30.72 30.72v40.96a30.72 30.72 0 0 0 61.44 0v-40.96a30.72 30.72 0 0 0-30.72-30.72z" p-id="5603" fill="#ed4f15"></path></svg>