<svg t="1585920442799" class="icon" viewBox="0 0 1024 1024" version="1.1" xmlns="http://www.w3.org/2000/svg" p-id="4052" width="200" height="200"><path d="M467.137979 191.936695l-18.985929 29.696577c-132.342362-70.588391-299.836028-29.746279-381.942716 98.6821-86.256753 134.926834-46.433519 315.902 88.493316 402.158753l226.32768 144.693156 245.276333 156.832719 156.88242-245.326034 174.576114-273.084258c86.256753-134.926834 46.445944-315.889575-88.48089-402.146328s-315.889575-46.433519-402.146328 88.493315z" fill="#E58FAC" p-id="4053"></path><path d="M193.229319 140.252077a58.187896 30.355121 37.15 1 0 36.663145-48.389537 58.187896 30.355121 37.15 1 0-36.663145 48.389537Z" fill="#E58FAC" p-id="4054"></path><path d="M322.570122 115.553522a30.355121 58.187896 7.36 1 0 14.908117-115.416953 30.355121 58.187896 7.36 1 0-14.908117 115.416953Z" fill="#E58FAC" p-id="4055"></path></svg>