<?xml version="1.0" standalone="no"?><!DOCTYPE svg PUBLIC "-//W3C//DTD SVG 1.1//EN" "http://www.w3.org/Graphics/SVG/1.1/DTD/svg11.dtd"><svg class="icon" width="200px" height="200.00px" viewBox="0 0 1024 1024" version="1.1" xmlns="http://www.w3.org/2000/svg"><path fill="#1296db" d="M500.7104 1021.1328c-126.3616 0-244.992-45.056-334.0288-126.8992a434.0736 434.0736 0 0 1-101.8368-139.1872 409.728 409.728 0 0 1-37.4784-171.8528c0-70.7328 17.4848-138.6496 51.968-201.9072 31.36-57.4208 76.4672-109.056 130.8672-149.7856l0.0512-0.1792 6.9632-5.1712a194.56 194.56 0 0 0 24.5504-21.4528c10.752-12.3648 19.0976-24.448 24.1664-34.9952 2.6112-5.9904 4.5056-12.0576 5.632-18.048l0.1792-1.664c0.4864-13.568-0.1536-24.96-1.9712-34.816a171.4176 171.4176 0 0 0-7.936-23.4496 124.928 124.928 0 0 0-16.0512-23.3984c-4.096-4.864-16.4864-19.5584-13.7216-37.376 1.4592-9.3696 6.7328-17.3056 14.848-22.3232l3.328-2.048 3.7888-0.9216c1.8944-0.4608 5.1712-1.024 9.984-1.024 6.8096 0 14.6688 1.1008 23.296 3.3024l0.4096 0.1024c16.6912 4.5056 36.1984 13.0048 57.9328 25.2672l0.3328 0.2048c40.192 23.552 93.4912 53.12 149.4528 73.0368 14.6432 4.4288 31.0016 9.1904 48.6912 14.1824l2.6368 0.6144c2.176 0.512 4.2496 0.9984 6.144 1.3568 28.5696 5.5296 57.856 13.056 87.0912 22.3744a507.7248 507.7248 0 0 1 51.6352 15.5648c88.7808 32.256 164.0448 87.936 217.6 161.024 55.2192 75.3664 83.2512 163.9424 81.0752 256.2048a419.4304 419.4304 0 0 1-42.1888 173.824c-25.5232 52.7616-61.3376 100.096-106.496 140.6976-92.1088 82.8672-212.9408 128.5888-340.224 128.768h-0.6912z m-247.296-759.5264l-0.2048 0.6656-7.168 5.1712c-107.52 77.4656-169.1392 192.5632-169.1392 315.7504 0 213.6064 190.1056 387.4048 423.808 387.4048h0.6144c237.2096-0.2816 434.3552-177.024 439.4496-393.9584 3.84-163.4304-100.0192-307.7632-264.704-368.0256l-4.8896-1.7408-0.6656-0.256a459.1616 459.1616 0 0 0-42.88-12.6208l-1.6128-0.4608a724.7104 724.7104 0 0 0-82.3552-21.1712 210.944 210.944 0 0 1-7.9616-1.7664l-2.944-0.6656-1.2544-0.3328a2898.688 2898.688 0 0 1-50.688-14.7712l-1.1008-0.3584c-59.9808-21.2736-116.0448-52.352-158.208-77.056a326.4 326.4 0 0 0-15.2576-8.0896l0.0512 0.1024 0.4096 0.8192 0.3584 0.8448c4.8128 11.52 8.3712 22.144 10.9056 32.4352l0.3072 1.3312c2.6368 13.8496 3.584 29.2352 2.944 47.0272a79.6672 79.6672 0 0 1-0.5888 6.656l-0.2048 1.4848a135.0656 135.0656 0 0 1-9.472 30.7712l-0.3072 0.64c-7.168 15.104-18.048 31.0016-32.256 47.2832l-0.7168 0.768c-7.296 7.68-15.4368 15.104-24.2944 22.1184z"  /><path fill="#1296db" d="M360.0384 439.4496l102.4 0 0 153.6-102.4 0 0-153.6Z"  /><path fill="#1296db" d="M692.8384 439.4496l102.4 0 0 153.6-102.4 0 0-153.6Z"  /></svg>