<svg t="1585976957887" class="icon" viewBox="0 0 1024 1024" version="1.1" xmlns="http://www.w3.org/2000/svg" p-id="707" data-spm-anchor-id="a313x.7781069.0.i6" width="200" height="200"><path d="M915.162 319.439c-53.875-73.698-129.703-129.704-219.086-162.296-17.022-6.161-34.496-11.311-51.971-15.568-29.565-9.41-59.023-17.025-87.813-22.623-1.902-0.339-4.03-0.9-6.269-1.348l-2.464-0.671a3343.396 3343.396 0 0 1-49.06-14.223c-56.451-20.05-110.214-49.842-150.648-73.59l-0.336-0.223C325.673 16.576 306.071 7.954 289.16 3.47l-0.336-0.112C280.087 1.12 272.136 0 265.304 0c-4.931 0-8.178 0.561-10.082 1.12l-3.81 0.896-3.358 2.015c-8.177 5.152-13.442 12.994-15.008 22.513-2.688 17.921 9.743 32.819 13.887 37.634 6.272 7.279 11.648 15.121 16.129 23.635a170.795 170.795 0 0 1 8.064 23.521c1.792 9.969 2.465 21.505 2.017 35.17l-0.225 1.568c-1.119 6.049-3.134 12.21-5.599 18.256-5.154 10.64-13.664 22.739-24.417 35.284-7.618 7.838-15.906 15.006-24.754 21.504l-7.057 5.267v0.11c-54.882 41.105-100.245 93.189-131.831 150.983-34.835 63.62-52.306 132.168-52.306 203.403-0.225 59.7 12.768 118.728 37.634 173.16a438.3 438.3 0 0 0 102.596 140.123c89.83 82.436 209.229 127.799 336.468 127.799h0.784c128.246-0.114 249.887-46.146 342.626-129.702 45.475-40.774 81.651-88.487 107.301-141.689 26.656-54.659 41.22-114.357 42.563-175.067 2.242-92.963-26.097-182.123-81.764-258.064z m31.81 256.72c-5.039 218.638-203.628 396.613-442.649 396.95h-0.67c-235.438 0-426.856-175.179-426.856-390.23 0-124.102 62.05-240.142 170.361-318.1l7.169-5.264 0.336-0.669h-0.111c8.96-7.057 17.248-14.447 24.527-22.289l0.784-0.673c14.226-16.464 25.09-32.481 32.481-47.714l0.225-0.673c4.48-9.857 7.617-20.272 9.632-30.913l0.113-1.568c0.336-2.127 0.561-4.481 0.561-6.723 0.672-17.92-0.224-33.377-2.912-47.264l-0.337-1.345c-2.577-10.306-6.161-21.06-10.978-32.705l-0.335-0.899-0.45-0.781v-0.112c5.154 2.575 10.307 5.377 15.346 8.173 42.451 24.866 98.902 56.116 159.384 77.622l1.122 0.337c17.022 5.038 33.935 10.08 51.071 14.896l1.234 0.335 3.022 0.675c2.69 0.559 5.266 1.231 7.954 1.793 27.999 5.488 55.665 12.657 82.998 21.39l1.564 0.338c14.563 3.584 29.013 7.725 43.237 12.768l0.672 0.223 4.928 1.68c165.883 60.71 270.497 206.205 266.577 370.742z" fill="#4e30f5" p-id="708"></path><path d="M362.077 438.058h103.045v154.678H362.077zM697.2 438.058h103.268v154.678H697.2z" fill="#4e30f5" p-id="709"></path></svg>