<svg t="1586675262804" class="icon" viewBox="0 0 1024 1024" version="1.1" xmlns="http://www.w3.org/2000/svg" p-id="6017" width="32" height="32"><path d="M498.64404 221.494303s-183.745939 116.887273-190.633373 131.978343c-6.888727 15.094949 0 175.974141 0 175.974142s17.742869 193.388606 205.297777 190.632081c187.553616-2.752646 224.206869-164.055919 234.629172-293.280324 10.419717-129.22699-249.293576-205.304242-249.293576-205.304242z" fill="#FFE5D7" p-id="6018"></path><path d="M785.110626 449.119677v-18.385455c1.792-83.847758-23.261091-154.689939-72.018747-204.909899-23.263677-23.765333-51.894303-42.150788-84.101172-54.702545-5.370828-45.734788-54.575838-81.605818-114.072566-81.605818-59.941495 0-109.151677 35.87103-114.068686 81.155878-32.660687 12.555636-60.838788 30.941091-84.102465 54.702546-48.761535 50.223838-73.809455 121.060848-72.467394 204.463838v22.419394c-12.527192 13.001697-22.813737 32.279273-15.212606 59.182546 5.370828 20.181333 20.133495 35.42497 38.476283 41.700848 9.393131 5.829818 20.575677 8.963879 31.758222 8.963879 23.261091 101.788444 107.808323 170.838626 217.852121 170.838626 110.050263 0 194.596202-69.500121 217.408647-171.279515 0.894707 0 1.342061 0.440889 2.236767 0.440889 14.312727 0 27.735919-4.924768 38.468526-13.442586 13.870545-7.625697 24.605737-21.077333 29.077979-37.222141 8.054949-29.591273-4.920889-49.768727-19.234909-62.320485z m-64.417616 55.148606c0 13.451636-0.892121 26.453333-3.130182 39.00897-35.789576 57.394424-95.281131 95.057455-169.091879 103.125333-5.370828-7.171879-16.553374-12.105697-29.525333-12.105697-18.342788 0-33.548929 9.867636-33.548929 22.423273 0 12.551758 14.757495 22.415515 33.548929 22.415515 16.550788 0 29.970101-8.067879 32.655515-18.831515 23.707152-2.688 46.524768-8.517818 67.546505-17.035637 30.418747-12.105697 57.261253-30.045091 79.625051-53.356606 3.577535-3.587879 7.157657-7.625697 10.290424-11.213576-26.841212 81.605818-97.967838 134.067717-191.460848 134.067718h-0.894707c-119.442101 0-203.089455-85.639758-203.089455-208.497778v-11.655758c0-4.933818 0.443475-19.281455 1.336889-32.733091 65.314909-23.315394 92.152242-89.673697 93.495596-92.365575l10.290424-39.90497c1.785535 3.137939 43.839354 72.188121 123.015758 102.229333 21.920323 8.517818 44.289293 13.001697 65.759676 17.485576 43.390707 9.413818 84.547232 17.935515 112.283152 54.252606 0.448646 0.449939 0.448646 0.899879 0.892121 0.899879v1.792z m-297.479757-17.625212c-21.025616 0-38.468525 12.263434-38.468526 27.03903 0 14.780768 16.999434 27.042909 38.468526 27.042909 21.028202 0 38.471111-11.94796 38.471111-27.042909-0.001293-15.091071-17.444202-27.03903-38.471111-27.03903z m180.726949 0.314182c-21.025616 0-38.026343 11.94796-38.026343 26.724848 0 14.780768 16.999434 26.728727 38.026343 26.728727 21.02303 0 38.021172-11.94796 38.021172-26.728727 0-14.775596-16.998141-26.724848-38.021172-26.724848z" fill="#5B2710" p-id="6019"></path><path d="M430.352808 497.36404c-6.031515 0-10.920081 4.898909-10.920081 10.947233 0 6.044444 4.888566 10.943354 10.920081 10.943353 6.030222 0 10.918788-4.898909 10.918788-10.943353 0-6.048323-4.888566-10.947232-10.918788-10.947233z m148.734707 5.374707c-6.031515 0-10.920081 4.898909-10.920081 10.947233 0 6.044444 4.888566 10.943354 10.920081 10.943353 6.030222 0 10.918788-4.898909 10.918788-10.943353 0-6.048323-4.888566-10.947232-10.918788-10.947233z" fill="#FFFFFF" p-id="6020"></path><path d="M849.529535 959.821576l-102.89002-217.465536c-2.685414-5.825939-8.498424-9.863758-15.656081-9.863757H331.059717c-6.707717 0-12.520727 4.037818-15.206141 9.413818L207.150545 959.371636c-1.342061 2.241939-1.790707 4.933818-1.790707 7.625697 0 9.413818 7.60501 17.039515 16.998142 17.039515H833.422222c9.394424 0 16.999434-7.625697 16.999435-17.039515 0.449939-2.691879 0-4.933818-0.892122-7.175757z m-490.733899-112.093091c-6.262949 37.213091-8.498424 75.776-9.840484 102.229333h-98.412607l91.25495-183.385212h38.918465c-8.049778 21.519515-16.998141 51.114667-21.920324 81.155879z m169.541819 79.363879c-45.626182 0-82.755232-71.742061-82.755233-160.519758h165.513051c0 88.777697-37.129051 160.519758-82.757818 160.519758z m174.911353 23.311515v-0.446061c0-24.211394-1.342061-57.845657-6.262949-91.469576-4.920889-33.629091-12.970667-67.704242-19.683556-91.465697h43.390707l86.787879 183.381334h-104.232081z" fill="#FF7174" p-id="6021"></path></svg>